<svg xmlns="http://www.w3.org/2000/svg" viewBox="0 0 560 400" width="560" height="400" font-family="Arial, Helvetica, sans-serif"><rect width="100%" height="100%" fill="#ffffff"/>
<text x="24" y="24" font-size="16" font-weight="bold" fill="#111">Fleet-mix what-if, R=50 min: large vehicles vs cars needed (weekly)</text>
<text x="24" y="42" font-size="12" fill="#444">Routes fixed as produced for the large vehicle; upper bound, not a mixed-fleet optimum.</text>
<line x1="24" y1="57" x2="50" y2="57" stroke="#9ab" stroke-width="1.2"/><text x="56" y="61" font-size="12" fill="#222">Single weekday</text>
<line x1="164" y1="57" x2="190" y2="57" stroke="#D55E00" stroke-width="2.6"/><text x="196" y="61" font-size="12" fill="#222">Whole week (max over days)</text>
<rect x="374" y="52" width="10" height="10" fill="#111111"/><text x="390" y="61" font-size="12" fill="#222">All-large baseline</text>
<rect x="70" y="84" width="400" height="260" fill="#fff" stroke="#888" stroke-width="0.8"/>
<line x1="70" y1="84" x2="70" y2="344" stroke="#e2e2e2" stroke-width="0.7"/>
<text x="70" y="358" font-size="11" text-anchor="middle" fill="#333">0</text>
<line x1="127.143" y1="84" x2="127.143" y2="344" stroke="#e2e2e2" stroke-width="0.7"/>
<text x="127.143" y="358" font-size="11" text-anchor="middle" fill="#333">1</text>
<line x1="184.286" y1="84" x2="184.286" y2="344" stroke="#e2e2e2" stroke-width="0.7"/>
<text x="184.286" y="358" font-size="11" text-anchor="middle" fill="#333">2</text>
<line x1="241.429" y1="84" x2="241.429" y2="344" stroke="#e2e2e2" stroke-width="0.7"/>
<text x="241.429" y="358" font-size="11" text-anchor="middle" fill="#333">3</text>
<line x1="298.571" y1="84" x2="298.571" y2="344" stroke="#e2e2e2" stroke-width="0.7"/>
<text x="298.571" y="358" font-size="11" text-anchor="middle" fill="#333">4</text>
<line x1="355.714" y1="84" x2="355.714" y2="344" stroke="#e2e2e2" stroke-width="0.7"/>
<text x="355.714" y="358" font-size="11" text-anchor="middle" fill="#333">5</text>
<line x1="412.857" y1="84" x2="412.857" y2="344" stroke="#e2e2e2" stroke-width="0.7"/>
<text x="412.857" y="358" font-size="11" text-anchor="middle" fill="#333">6</text>
<line x1="470" y1="84" x2="470" y2="344" stroke="#e2e2e2" stroke-width="0.7"/>
<text x="470" y="358" font-size="11" text-anchor="middle" fill="#333">7</text>
<line x1="70" y1="344" x2="470" y2="344" stroke="#e2e2e2" stroke-width="0.7"/>
<text x="65" y="348" font-size="11" text-anchor="end" fill="#333">0</text>
<line x1="70" y1="279" x2="470" y2="279" stroke="#e2e2e2" stroke-width="0.7"/>
<text x="65" y="283" font-size="11" text-anchor="end" fill="#333">1</text>
<line x1="70" y1="214" x2="470" y2="214" stroke="#e2e2e2" stroke-width="0.7"/>
<text x="65" y="218" font-size="11" text-anchor="end" fill="#333">2</text>
<line x1="70" y1="149" x2="470" y2="149" stroke="#e2e2e2" stroke-width="0.7"/>
<text x="65" y="153" font-size="11" text-anchor="end" fill="#333">3</text>
<line x1="70" y1="84" x2="470" y2="84" stroke="#e2e2e2" stroke-width="0.7"/>
<text x="65" y="88" font-size="11" text-anchor="end" fill="#333">4</text>
<text x="270" y="378" font-size="12" text-anchor="middle" fill="#222">Large vehicles (4 Sw / 10 So)</text>
<text transform="rotate(-90 38 214)" x="38" y="214" font-size="12" text-anchor="middle" fill="#222">Cars (0 Sw / 4 So)</text>
<polyline points="298.571,214 355.714,279 412.857,344" fill="none" stroke="#9ab" stroke-width="1.2"><title>2026-10-05</title></polyline>
<text x="301.571" y="211" font-size="9" fill="#678">10-05</text>
<polyline points="241.429,214 298.571,279 355.714,344" fill="none" stroke="#9ab" stroke-width="1.2"><title>2026-10-06</title></polyline>
<text x="244.429" y="211" font-size="9" fill="#678">10-06</text>
<polyline points="298.571,214 355.714,279 412.857,344" fill="none" stroke="#9ab" stroke-width="1.2"><title>2026-10-07</title></polyline>
<text x="301.571" y="211" font-size="9" fill="#678">10-07</text>
<polyline points="241.429,214 298.571,279 355.714,344" fill="none" stroke="#9ab" stroke-width="1.2"><title>2026-10-08</title></polyline>
<text x="244.429" y="211" font-size="9" fill="#678">10-08</text>
<polyline points="241.429,149 298.571,214 355.714,279 412.857,344" fill="none" stroke="#9ab" stroke-width="1.2"><title>2026-10-09</title></polyline>
<text x="244.429" y="146" font-size="9" fill="#678">10-09</text>
<polyline points="298.571,214 355.714,279 412.857,344" fill="none" stroke="#D55E00" stroke-width="2.6"/>
<circle cx="298.571" cy="214" r="4.5" fill="#D55E00" fill-opacity="1" stroke="#D55E00"><title>L=4 large, C=2 cars</title></circle>
<text x="304.571" y="207" font-size="11" font-weight="bold" fill="#D55E00">4+2</text>
<circle cx="355.714" cy="279" r="4.5" fill="#D55E00" fill-opacity="1" stroke="#D55E00"><title>L=5 large, C=1 cars</title></circle>
<text x="361.714" y="272" font-size="11" font-weight="bold" fill="#D55E00">5+1</text>
<circle cx="412.857" cy="344" r="4.5" fill="#D55E00" fill-opacity="1" stroke="#D55E00"><title>L=6 large, C=0 cars</title></circle>
<text x="418.857" y="337" font-size="11" font-weight="bold" fill="#D55E00">6+0</text>
<rect x="406.857" y="338" width="12" height="12" fill="#111111"/>
<text x="402.857" y="334" font-size="12" font-weight="bold" text-anchor="end" fill="#111111">all-large 6</text>
</svg>
