<svg xmlns="http://www.w3.org/2000/svg" viewBox="0 0 2260 284" width="2260" height="284" font-family="Arial, Helvetica, sans-serif"><defs><pattern id="cool" patternUnits="userSpaceOnUse" width="5" height="5" patternTransform="rotate(45)"><rect width="5" height="5" fill="#f3f3f3"/><line x1="0" y1="0" x2="0" y2="5" stroke="#999" stroke-width="1.5"/></pattern></defs><rect width="100%" height="100%" fill="#ffffff"/>
<text x="20" y="24" font-size="16" font-weight="bold" fill="#111">Friday 2026-10-09, ride limit R=50 min, tour limit 150 min, 6 vehicles</text>
<rect x="20" y="40" width="14" height="12" fill="#0072B2" stroke="#222" stroke-width="0.7"/><text x="40" y="51" font-size="12" fill="#222">Pickup (P): ends at campus at anchor</text>
<rect x="294" y="40" width="14" height="12" fill="#E69F00" stroke="#222" stroke-width="0.7"/><text x="314" y="51" font-size="12" fill="#222">Drop-off (D): leaves campus at anchor</text>
<rect x="574.5" y="40" width="14" height="12" fill="url(#cool)" stroke="#888" stroke-width="0.6"/><text x="594.5" y="51" font-size="12" fill="#222">10-min cooldown</text>
<text x="704.5" y="51" font-size="11" fill="#555">Bar label: anchor time, direction, Sw/So load</text>
<rect x="80" y="86" width="2160" height="30" fill="#f4f4f4"/>
<text x="74" y="105" font-size="12" text-anchor="end" fill="#222">Vehicle 1</text>
<rect x="80" y="116" width="2160" height="30" fill="#ffffff"/>
<text x="74" y="135" font-size="12" text-anchor="end" fill="#222">Vehicle 2</text>
<rect x="80" y="146" width="2160" height="30" fill="#f4f4f4"/>
<text x="74" y="165" font-size="12" text-anchor="end" fill="#222">Vehicle 3</text>
<rect x="80" y="176" width="2160" height="30" fill="#ffffff"/>
<text x="74" y="195" font-size="12" text-anchor="end" fill="#222">Vehicle 4</text>
<rect x="80" y="206" width="2160" height="30" fill="#f4f4f4"/>
<text x="74" y="225" font-size="12" text-anchor="end" fill="#222">Vehicle 5</text>
<rect x="80" y="236" width="2160" height="30" fill="#ffffff"/>
<text x="74" y="255" font-size="12" text-anchor="end" fill="#222">Vehicle 6</text>
<line x1="80" y1="86" x2="80" y2="266" stroke="#bbb" stroke-width="0.7"/>
<text x="80" y="80" font-size="11" text-anchor="middle" fill="#333">07:00</text>
<line x1="260" y1="86" x2="260" y2="266" stroke="#bbb" stroke-width="0.7"/>
<text x="260" y="80" font-size="11" text-anchor="middle" fill="#333">08:00</text>
<line x1="440" y1="86" x2="440" y2="266" stroke="#bbb" stroke-width="0.7"/>
<text x="440" y="80" font-size="11" text-anchor="middle" fill="#333">09:00</text>
<line x1="620" y1="86" x2="620" y2="266" stroke="#bbb" stroke-width="0.7"/>
<text x="620" y="80" font-size="11" text-anchor="middle" fill="#333">10:00</text>
<line x1="800" y1="86" x2="800" y2="266" stroke="#bbb" stroke-width="0.7"/>
<text x="800" y="80" font-size="11" text-anchor="middle" fill="#333">11:00</text>
<line x1="980" y1="86" x2="980" y2="266" stroke="#bbb" stroke-width="0.7"/>
<text x="980" y="80" font-size="11" text-anchor="middle" fill="#333">12:00</text>
<line x1="1160" y1="86" x2="1160" y2="266" stroke="#bbb" stroke-width="0.7"/>
<text x="1160" y="80" font-size="11" text-anchor="middle" fill="#333">13:00</text>
<line x1="1340" y1="86" x2="1340" y2="266" stroke="#bbb" stroke-width="0.7"/>
<text x="1340" y="80" font-size="11" text-anchor="middle" fill="#333">14:00</text>
<line x1="1520" y1="86" x2="1520" y2="266" stroke="#bbb" stroke-width="0.7"/>
<text x="1520" y="80" font-size="11" text-anchor="middle" fill="#333">15:00</text>
<line x1="1700" y1="86" x2="1700" y2="266" stroke="#bbb" stroke-width="0.7"/>
<text x="1700" y="80" font-size="11" text-anchor="middle" fill="#333">16:00</text>
<line x1="1880" y1="86" x2="1880" y2="266" stroke="#bbb" stroke-width="0.7"/>
<text x="1880" y="80" font-size="11" text-anchor="middle" fill="#333">17:00</text>
<line x1="2060" y1="86" x2="2060" y2="266" stroke="#bbb" stroke-width="0.7"/>
<text x="2060" y="80" font-size="11" text-anchor="middle" fill="#333">18:00</text>
<line x1="2240" y1="86" x2="2240" y2="266" stroke="#bbb" stroke-width="0.7"/>
<text x="2240" y="80" font-size="11" text-anchor="middle" fill="#333">19:00</text>
<rect x="395" y="90" width="30" height="22" fill="url(#cool)" stroke="#888" stroke-width="0.6"/>
<g><title>Pickup Vehicle6, anchor 08:45, 3 students, route 98 min, max ride 48 min, 0 Sw / 3 So, 07:07-08:45</title><clipPath id="c1"><rect x="101" y="90" width="294" height="22"/></clipPath>
<rect x="101" y="90" width="294" height="22" fill="#0072B2" stroke="#222" stroke-width="0.7"/>
<text clip-path="url(#c1)" x="104" y="105" font-size="9.5" fill="#fff">08:45 P 0Sw/3So</text></g>
<rect x="575" y="90" width="30" height="22" fill="url(#cool)" stroke="#888" stroke-width="0.6"/>
<g><title>Pickup Vehicle6, anchor 09:45, 1 students, route 40 min, max ride 18 min, 0 Sw / 1 So, 09:05-09:45</title><clipPath id="c2"><rect x="455" y="90" width="120" height="22"/></clipPath>
<rect x="455" y="90" width="120" height="22" fill="#0072B2" stroke="#222" stroke-width="0.7"/>
<text clip-path="url(#c2)" x="458" y="105" font-size="9.5" fill="#fff">09:45 P 0Sw/1So</text></g>
<rect x="1295" y="90" width="30" height="22" fill="url(#cool)" stroke="#888" stroke-width="0.6"/>
<g><title>Pickup Vehicle6, anchor 13:45, 2 students, route 95 min, max ride 50 min, 0 Sw / 2 So, 12:10-13:45</title><clipPath id="c3"><rect x="1010" y="90" width="285" height="22"/></clipPath>
<rect x="1010" y="90" width="285" height="22" fill="#0072B2" stroke="#222" stroke-width="0.7"/>
<text clip-path="url(#c3)" x="1013" y="105" font-size="9.5" fill="#fff">13:45 P 0Sw/2So</text></g>
<rect x="1901" y="90" width="30" height="22" fill="url(#cool)" stroke="#888" stroke-width="0.6"/>
<g><title>Drop-off Vehicle6, anchor 16:15, 1 students, route 52 min, max ride 30 min, 0 Sw / 1 So, 16:15-17:07</title><clipPath id="c4"><rect x="1745" y="90" width="156" height="22"/></clipPath>
<rect x="1745" y="90" width="156" height="22" fill="#E69F00" stroke="#222" stroke-width="0.7"/>
<text clip-path="url(#c4)" x="1748" y="105" font-size="9.5" fill="#000">16:15 D 0Sw/1So</text></g>
<rect x="2168" y="90" width="30" height="22" fill="url(#cool)" stroke="#888" stroke-width="0.6"/>
<g><title>Drop-off Vehicle6, anchor 18:15, 1 students, route 21 min, max ride 10 min, 0 Sw / 1 So, 18:15-18:36</title><clipPath id="c5"><rect x="2105" y="90" width="63" height="22"/></clipPath>
<rect x="2105" y="90" width="63" height="22" fill="#E69F00" stroke="#222" stroke-width="0.7"/>
<text clip-path="url(#c5)" x="2108" y="105" font-size="9.5" fill="#000">18:15 D 0Sw/1So</text></g>
<rect x="395" y="120" width="30" height="22" fill="url(#cool)" stroke="#888" stroke-width="0.6"/>
<g><title>Pickup Vehicle7, anchor 08:45, 2 students, route 89 min, max ride 49 min, 1 Sw / 1 So, 07:16-08:45</title><clipPath id="c6"><rect x="128" y="120" width="267" height="22"/></clipPath>
<rect x="128" y="120" width="267" height="22" fill="#0072B2" stroke="#222" stroke-width="0.7"/>
<text clip-path="url(#c6)" x="131" y="135" font-size="9.5" fill="#fff">08:45 P 1Sw/1So</text></g>
<rect x="1121" y="120" width="30" height="22" fill="url(#cool)" stroke="#888" stroke-width="0.6"/>
<g><title>Drop-off Vehicle7, anchor 12:15, 2 students, route 32 min, max ride 21 min, 0 Sw / 2 So, 12:15-12:47</title><clipPath id="c7"><rect x="1025" y="120" width="96" height="22"/></clipPath>
<rect x="1025" y="120" width="96" height="22" fill="#E69F00" stroke="#222" stroke-width="0.7"/>
<text clip-path="url(#c7)" x="1028" y="135" font-size="9.5" fill="#000">12:15 D 0Sw/2So</text></g>
<rect x="1325" y="120" width="30" height="22" fill="url(#cool)" stroke="#888" stroke-width="0.6"/>
<g><title>Drop-off Vehicle7, anchor 13:15, 1 students, route 40 min, max ride 22 min, 0 Sw / 1 So, 13:15-13:55</title><clipPath id="c8"><rect x="1205" y="120" width="120" height="22"/></clipPath>
<rect x="1205" y="120" width="120" height="22" fill="#E69F00" stroke="#222" stroke-width="0.7"/>
<text clip-path="url(#c8)" x="1208" y="135" font-size="9.5" fill="#000">13:15 D 0Sw/1So</text></g>
<rect x="2066" y="120" width="30" height="22" fill="url(#cool)" stroke="#888" stroke-width="0.6"/>
<g><title>Drop-off Vehicle7, anchor 17:15, 2 students, route 47 min, max ride 31 min, 0 Sw / 2 So, 17:15-18:02</title><clipPath id="c9"><rect x="1925" y="120" width="141" height="22"/></clipPath>
<rect x="1925" y="120" width="141" height="22" fill="#E69F00" stroke="#222" stroke-width="0.7"/>
<text clip-path="url(#c9)" x="1928" y="135" font-size="9.5" fill="#000">17:15 D 0Sw/2So</text></g>
<rect x="395" y="150" width="30" height="22" fill="url(#cool)" stroke="#888" stroke-width="0.6"/>
<g><title>Pickup Vehicle8, anchor 08:45, 4 students, route 77 min, max ride 47 min, 2 Sw / 2 So, 07:28-08:45</title><clipPath id="c10"><rect x="164" y="150" width="231" height="22"/></clipPath>
<rect x="164" y="150" width="231" height="22" fill="#0072B2" stroke="#222" stroke-width="0.7"/>
<text clip-path="url(#c10)" x="167" y="165" font-size="9.5" fill="#fff">08:45 P 2Sw/2So</text></g>
<rect x="1235" y="150" width="30" height="22" fill="url(#cool)" stroke="#888" stroke-width="0.6"/>
<g><title>Drop-off Vehicle8, anchor 12:15, 4 students, route 70 min, max ride 48 min, 1 Sw / 3 So, 12:15-13:25</title><clipPath id="c11"><rect x="1025" y="150" width="210" height="22"/></clipPath>
<rect x="1025" y="150" width="210" height="22" fill="#E69F00" stroke="#222" stroke-width="0.7"/>
<text clip-path="url(#c11)" x="1028" y="165" font-size="9.5" fill="#000">12:15 D 1Sw/3So</text></g>
<rect x="2156" y="150" width="30" height="22" fill="url(#cool)" stroke="#888" stroke-width="0.6"/>
<g><title>Drop-off Vehicle8, anchor 17:15, 1 students, route 77 min, max ride 40 min, 1 Sw / 0 So, 17:15-18:32</title><clipPath id="c12"><rect x="1925" y="150" width="231" height="22"/></clipPath>
<rect x="1925" y="150" width="231" height="22" fill="#E69F00" stroke="#222" stroke-width="0.7"/>
<text clip-path="url(#c12)" x="1928" y="165" font-size="9.5" fill="#000">17:15 D 1Sw/0So</text></g>
<rect x="395" y="180" width="30" height="22" fill="url(#cool)" stroke="#888" stroke-width="0.6"/>
<g><title>Pickup Vehicle9, anchor 08:45, 4 students, route 67 min, max ride 47 min, 1 Sw / 3 So, 07:38-08:45</title><clipPath id="c13"><rect x="194" y="180" width="201" height="22"/></clipPath>
<rect x="194" y="180" width="201" height="22" fill="#0072B2" stroke="#222" stroke-width="0.7"/>
<text clip-path="url(#c13)" x="197" y="195" font-size="9.5" fill="#fff">08:45 P 1Sw/3So</text></g>
<rect x="1268" y="180" width="30" height="22" fill="url(#cool)" stroke="#888" stroke-width="0.6"/>
<g><title>Drop-off Vehicle9, anchor 12:15, 2 students, route 81 min, max ride 44 min, 0 Sw / 2 So, 12:15-13:36</title><clipPath id="c14"><rect x="1025" y="180" width="243" height="22"/></clipPath>
<rect x="1025" y="180" width="243" height="22" fill="#E69F00" stroke="#222" stroke-width="0.7"/>
<text clip-path="url(#c14)" x="1028" y="195" font-size="9.5" fill="#000">12:15 D 0Sw/2So</text></g>
<rect x="2162" y="180" width="30" height="22" fill="url(#cool)" stroke="#888" stroke-width="0.6"/>
<g><title>Drop-off Vehicle9, anchor 17:15, 2 students, route 79 min, max ride 43 min, 0 Sw / 2 So, 17:15-18:34</title><clipPath id="c15"><rect x="1925" y="180" width="237" height="22"/></clipPath>
<rect x="1925" y="180" width="237" height="22" fill="#E69F00" stroke="#222" stroke-width="0.7"/>
<text clip-path="url(#c15)" x="1928" y="195" font-size="9.5" fill="#000">17:15 D 0Sw/2So</text></g>
<rect x="1295" y="210" width="30" height="22" fill="url(#cool)" stroke="#888" stroke-width="0.6"/>
<g><title>Pickup Vehicle10, anchor 13:45, 3 students, route 56 min, max ride 46 min, 0 Sw / 3 So, 12:49-13:45</title><clipPath id="c16"><rect x="1127" y="210" width="168" height="22"/></clipPath>
<rect x="1127" y="210" width="168" height="22" fill="#0072B2" stroke="#222" stroke-width="0.7"/>
<text clip-path="url(#c16)" x="1130" y="225" font-size="9.5" fill="#fff">13:45 P 0Sw/3So</text></g>
<rect x="1418" y="240" width="30" height="22" fill="url(#cool)" stroke="#888" stroke-width="0.6"/>
<g><title>Drop-off Vehicle11, anchor 13:15, 3 students, route 71 min, max ride 49 min, 2 Sw / 1 So, 13:15-14:26</title><clipPath id="c17"><rect x="1205" y="240" width="213" height="22"/></clipPath>
<rect x="1205" y="240" width="213" height="22" fill="#E69F00" stroke="#222" stroke-width="0.7"/>
<text clip-path="url(#c17)" x="1208" y="255" font-size="9.5" fill="#000">13:15 D 2Sw/1So</text></g>
</svg>
