<svg xmlns="http://www.w3.org/2000/svg" viewBox="0 0 2440 224" width="2440" height="224" font-family="Arial, Helvetica, sans-serif"><defs><pattern id="cool" patternUnits="userSpaceOnUse" width="5" height="5" patternTransform="rotate(45)"><rect width="5" height="5" fill="#f3f3f3"/><line x1="0" y1="0" x2="0" y2="5" stroke="#999" stroke-width="1.5"/></pattern></defs><rect width="100%" height="100%" fill="#ffffff"/>
<text x="20" y="24" font-size="16" font-weight="bold" fill="#111">Tuesday 2026-10-06, ride limit R=60 min, tour limit 150 min, 4 vehicles</text>
<rect x="20" y="40" width="14" height="12" fill="#0072B2" stroke="#222" stroke-width="0.7"/><text x="40" y="51" font-size="12" fill="#222">Pickup (P): ends at campus at anchor</text>
<rect x="294" y="40" width="14" height="12" fill="#E69F00" stroke="#222" stroke-width="0.7"/><text x="314" y="51" font-size="12" fill="#222">Drop-off (D): leaves campus at anchor</text>
<rect x="574.5" y="40" width="14" height="12" fill="url(#cool)" stroke="#888" stroke-width="0.6"/><text x="594.5" y="51" font-size="12" fill="#222">10-min cooldown</text>
<text x="704.5" y="51" font-size="11" fill="#555">Bar label: anchor time, direction, Sw/So load</text>
<rect x="80" y="86" width="2340" height="30" fill="#f4f4f4"/>
<text x="74" y="105" font-size="12" text-anchor="end" fill="#222">Vehicle 1</text>
<rect x="80" y="116" width="2340" height="30" fill="#ffffff"/>
<text x="74" y="135" font-size="12" text-anchor="end" fill="#222">Vehicle 2</text>
<rect x="80" y="146" width="2340" height="30" fill="#f4f4f4"/>
<text x="74" y="165" font-size="12" text-anchor="end" fill="#222">Vehicle 3</text>
<rect x="80" y="176" width="2340" height="30" fill="#ffffff"/>
<text x="74" y="195" font-size="12" text-anchor="end" fill="#222">Vehicle 4</text>
<line x1="80" y1="86" x2="80" y2="206" stroke="#bbb" stroke-width="0.7"/>
<text x="80" y="80" font-size="11" text-anchor="middle" fill="#333">07:00</text>
<line x1="260" y1="86" x2="260" y2="206" stroke="#bbb" stroke-width="0.7"/>
<text x="260" y="80" font-size="11" text-anchor="middle" fill="#333">08:00</text>
<line x1="440" y1="86" x2="440" y2="206" stroke="#bbb" stroke-width="0.7"/>
<text x="440" y="80" font-size="11" text-anchor="middle" fill="#333">09:00</text>
<line x1="620" y1="86" x2="620" y2="206" stroke="#bbb" stroke-width="0.7"/>
<text x="620" y="80" font-size="11" text-anchor="middle" fill="#333">10:00</text>
<line x1="800" y1="86" x2="800" y2="206" stroke="#bbb" stroke-width="0.7"/>
<text x="800" y="80" font-size="11" text-anchor="middle" fill="#333">11:00</text>
<line x1="980" y1="86" x2="980" y2="206" stroke="#bbb" stroke-width="0.7"/>
<text x="980" y="80" font-size="11" text-anchor="middle" fill="#333">12:00</text>
<line x1="1160" y1="86" x2="1160" y2="206" stroke="#bbb" stroke-width="0.7"/>
<text x="1160" y="80" font-size="11" text-anchor="middle" fill="#333">13:00</text>
<line x1="1340" y1="86" x2="1340" y2="206" stroke="#bbb" stroke-width="0.7"/>
<text x="1340" y="80" font-size="11" text-anchor="middle" fill="#333">14:00</text>
<line x1="1520" y1="86" x2="1520" y2="206" stroke="#bbb" stroke-width="0.7"/>
<text x="1520" y="80" font-size="11" text-anchor="middle" fill="#333">15:00</text>
<line x1="1700" y1="86" x2="1700" y2="206" stroke="#bbb" stroke-width="0.7"/>
<text x="1700" y="80" font-size="11" text-anchor="middle" fill="#333">16:00</text>
<line x1="1880" y1="86" x2="1880" y2="206" stroke="#bbb" stroke-width="0.7"/>
<text x="1880" y="80" font-size="11" text-anchor="middle" fill="#333">17:00</text>
<line x1="2060" y1="86" x2="2060" y2="206" stroke="#bbb" stroke-width="0.7"/>
<text x="2060" y="80" font-size="11" text-anchor="middle" fill="#333">18:00</text>
<line x1="2240" y1="86" x2="2240" y2="206" stroke="#bbb" stroke-width="0.7"/>
<text x="2240" y="80" font-size="11" text-anchor="middle" fill="#333">19:00</text>
<line x1="2420" y1="86" x2="2420" y2="206" stroke="#bbb" stroke-width="0.7"/>
<text x="2420" y="80" font-size="11" text-anchor="middle" fill="#333">20:00</text>
<rect x="395" y="90" width="30" height="22" fill="url(#cool)" stroke="#888" stroke-width="0.6"/>
<g><title>Pickup Vehicle5, anchor 08:45, 2 students, route 93 min, max ride 43 min, 0 Sw / 2 So, 07:12-08:45</title><clipPath id="c1"><rect x="116" y="90" width="279" height="22"/></clipPath>
<rect x="116" y="90" width="279" height="22" fill="#0072B2" stroke="#222" stroke-width="0.7"/>
<text clip-path="url(#c1)" x="119" y="105" font-size="9.5" fill="#fff">08:45 P 0Sw/2So</text></g>
<rect x="755" y="90" width="30" height="22" fill="url(#cool)" stroke="#888" stroke-width="0.6"/>
<g><title>Pickup Vehicle5, anchor 10:45, 1 students, route 35 min, max ride 17 min, 0 Sw / 1 So, 10:10-10:45</title><clipPath id="c2"><rect x="650" y="90" width="105" height="22"/></clipPath>
<rect x="650" y="90" width="105" height="22" fill="#0072B2" stroke="#222" stroke-width="0.7"/>
<text clip-path="url(#c2)" x="653" y="105" font-size="9.5" fill="#fff">10:45 P 0Sw/1So</text></g>
<rect x="998" y="90" width="30" height="22" fill="url(#cool)" stroke="#888" stroke-width="0.6"/>
<g><title>Drop-off Vehicle5, anchor 11:15, 1 students, route 51 min, max ride 30 min, 0 Sw / 1 So, 11:15-12:06</title><clipPath id="c3"><rect x="845" y="90" width="153" height="22"/></clipPath>
<rect x="845" y="90" width="153" height="22" fill="#E69F00" stroke="#222" stroke-width="0.7"/>
<text clip-path="url(#c3)" x="848" y="105" font-size="9.5" fill="#000">11:15 D 0Sw/1So</text></g>
<rect x="1355" y="90" width="30" height="22" fill="url(#cool)" stroke="#888" stroke-width="0.6"/>
<g><title>Drop-off Vehicle5, anchor 13:15, 2 students, route 50 min, max ride 32 min, 0 Sw / 2 So, 13:15-14:05</title><clipPath id="c4"><rect x="1205" y="90" width="150" height="22"/></clipPath>
<rect x="1205" y="90" width="150" height="22" fill="#E69F00" stroke="#222" stroke-width="0.7"/>
<text clip-path="url(#c4)" x="1208" y="105" font-size="9.5" fill="#000">13:15 D 0Sw/2So</text></g>
<rect x="1652" y="90" width="30" height="22" fill="url(#cool)" stroke="#888" stroke-width="0.6"/>
<g><title>Drop-off Vehicle5, anchor 15:15, 1 students, route 29 min, max ride 14 min, 0 Sw / 1 So, 15:15-15:44</title><clipPath id="c5"><rect x="1565" y="90" width="87" height="22"/></clipPath>
<rect x="1565" y="90" width="87" height="22" fill="#E69F00" stroke="#222" stroke-width="0.7"/>
<text clip-path="url(#c5)" x="1568" y="105" font-size="9.5" fill="#000">15:15 D 0Sw/1So</text></g>
<rect x="1871" y="90" width="30" height="22" fill="url(#cool)" stroke="#888" stroke-width="0.6"/>
<g><title>Drop-off Vehicle5, anchor 16:15, 2 students, route 42 min, max ride 26 min, 0 Sw / 2 So, 16:15-16:57</title><clipPath id="c6"><rect x="1745" y="90" width="126" height="22"/></clipPath>
<rect x="1745" y="90" width="126" height="22" fill="#E69F00" stroke="#222" stroke-width="0.7"/>
<text clip-path="url(#c6)" x="1748" y="105" font-size="9.5" fill="#000">16:15 D 0Sw/2So</text></g>
<rect x="2015" y="90" width="30" height="22" fill="url(#cool)" stroke="#888" stroke-width="0.6"/>
<g><title>Drop-off Vehicle5, anchor 17:15, 1 students, route 30 min, max ride 14 min, 1 Sw / 0 So, 17:15-17:45</title><clipPath id="c7"><rect x="1925" y="90" width="90" height="22"/></clipPath>
<rect x="1925" y="90" width="90" height="22" fill="#E69F00" stroke="#222" stroke-width="0.7"/>
<text clip-path="url(#c7)" x="1928" y="105" font-size="9.5" fill="#000">17:15 D 1Sw/0So</text></g>
<rect x="2261" y="90" width="30" height="22" fill="url(#cool)" stroke="#888" stroke-width="0.6"/>
<g><title>Drop-off Vehicle5, anchor 18:15, 2 students, route 52 min, max ride 30 min, 2 Sw / 0 So, 18:15-19:07</title><clipPath id="c8"><rect x="2105" y="90" width="156" height="22"/></clipPath>
<rect x="2105" y="90" width="156" height="22" fill="#E69F00" stroke="#222" stroke-width="0.7"/>
<text clip-path="url(#c8)" x="2108" y="105" font-size="9.5" fill="#000">18:15 D 2Sw/0So</text></g>
<rect x="395" y="120" width="30" height="22" fill="url(#cool)" stroke="#888" stroke-width="0.6"/>
<g><title>Pickup Vehicle6, anchor 08:45, 6 students, route 84 min, max ride 58 min, 2 Sw / 4 So, 07:21-08:45</title><clipPath id="c9"><rect x="143" y="120" width="252" height="22"/></clipPath>
<rect x="143" y="120" width="252" height="22" fill="#0072B2" stroke="#222" stroke-width="0.7"/>
<text clip-path="url(#c9)" x="146" y="135" font-size="9.5" fill="#fff">08:45 P 2Sw/4So</text></g>
<rect x="935" y="120" width="30" height="22" fill="url(#cool)" stroke="#888" stroke-width="0.6"/>
<g><title>Pickup Vehicle6, anchor 11:45, 2 students, route 91 min, max ride 46 min, 1 Sw / 1 So, 10:14-11:45</title><clipPath id="c10"><rect x="662" y="120" width="273" height="22"/></clipPath>
<rect x="662" y="120" width="273" height="22" fill="#0072B2" stroke="#222" stroke-width="0.7"/>
<text clip-path="url(#c10)" x="665" y="135" font-size="9.5" fill="#fff">11:45 P 1Sw/1So</text></g>
<rect x="1193" y="120" width="30" height="22" fill="url(#cool)" stroke="#888" stroke-width="0.6"/>
<g><title>Drop-off Vehicle6, anchor 12:15, 2 students, route 56 min, max ride 34 min, 1 Sw / 1 So, 12:15-13:11</title><clipPath id="c11"><rect x="1025" y="120" width="168" height="22"/></clipPath>
<rect x="1025" y="120" width="168" height="22" fill="#E69F00" stroke="#222" stroke-width="0.7"/>
<text clip-path="url(#c11)" x="1028" y="135" font-size="9.5" fill="#000">12:15 D 1Sw/1So</text></g>
<rect x="1475" y="120" width="30" height="22" fill="url(#cool)" stroke="#888" stroke-width="0.6"/>
<g><title>Pickup Vehicle6, anchor 14:45, 2 students, route 83 min, max ride 43 min, 2 Sw / 0 So, 13:22-14:45</title><clipPath id="c12"><rect x="1226" y="120" width="249" height="22"/></clipPath>
<rect x="1226" y="120" width="249" height="22" fill="#0072B2" stroke="#222" stroke-width="0.7"/>
<text clip-path="url(#c12)" x="1229" y="135" font-size="9.5" fill="#fff">14:45 P 2Sw/0So</text></g>
<rect x="2024" y="120" width="30" height="22" fill="url(#cool)" stroke="#888" stroke-width="0.6"/>
<g><title>Drop-off Vehicle6, anchor 16:15, 3 students, route 93 min, max ride 57 min, 1 Sw / 2 So, 16:15-17:48</title><clipPath id="c13"><rect x="1745" y="120" width="279" height="22"/></clipPath>
<rect x="1745" y="120" width="279" height="22" fill="#E69F00" stroke="#222" stroke-width="0.7"/>
<text clip-path="url(#c13)" x="1748" y="135" font-size="9.5" fill="#000">16:15 D 1Sw/2So</text></g>
<rect x="2336" y="120" width="30" height="22" fill="url(#cool)" stroke="#888" stroke-width="0.6"/>
<g><title>Drop-off Vehicle6, anchor 18:15, 1 students, route 77 min, max ride 40 min, 1 Sw / 0 So, 18:15-19:32</title><clipPath id="c14"><rect x="2105" y="120" width="231" height="22"/></clipPath>
<rect x="2105" y="120" width="231" height="22" fill="#E69F00" stroke="#222" stroke-width="0.7"/>
<text clip-path="url(#c14)" x="2108" y="135" font-size="9.5" fill="#000">18:15 D 1Sw/0So</text></g>
<rect x="395" y="150" width="30" height="22" fill="url(#cool)" stroke="#888" stroke-width="0.6"/>
<g><title>Pickup Vehicle7, anchor 08:45, 3 students, route 82 min, max ride 56 min, 1 Sw / 2 So, 07:23-08:45</title><clipPath id="c15"><rect x="149" y="150" width="246" height="22"/></clipPath>
<rect x="149" y="150" width="246" height="22" fill="#0072B2" stroke="#222" stroke-width="0.7"/>
<text clip-path="url(#c15)" x="152" y="165" font-size="9.5" fill="#fff">08:45 P 1Sw/2So</text></g>
<rect x="1115" y="150" width="30" height="22" fill="url(#cool)" stroke="#888" stroke-width="0.6"/>
<g><title>Pickup Vehicle7, anchor 12:45, 3 students, route 80 min, max ride 52 min, 0 Sw / 3 So, 11:25-12:45</title><clipPath id="c16"><rect x="875" y="150" width="240" height="22"/></clipPath>
<rect x="875" y="150" width="240" height="22" fill="#0072B2" stroke="#222" stroke-width="0.7"/>
<text clip-path="url(#c16)" x="878" y="165" font-size="9.5" fill="#fff">12:45 P 0Sw/3So</text></g>
<rect x="1433" y="150" width="30" height="22" fill="url(#cool)" stroke="#888" stroke-width="0.6"/>
<g><title>Drop-off Vehicle7, anchor 13:15, 2 students, route 76 min, max ride 45 min, 1 Sw / 1 So, 13:15-14:31</title><clipPath id="c17"><rect x="1205" y="150" width="228" height="22"/></clipPath>
<rect x="1205" y="150" width="228" height="22" fill="#E69F00" stroke="#222" stroke-width="0.7"/>
<text clip-path="url(#c17)" x="1208" y="165" font-size="9.5" fill="#000">13:15 D 1Sw/1So</text></g>
<rect x="2120" y="150" width="30" height="22" fill="url(#cool)" stroke="#888" stroke-width="0.6"/>
<g><title>Drop-off Vehicle7, anchor 17:15, 2 students, route 65 min, max ride 39 min, 0 Sw / 2 So, 17:15-18:20</title><clipPath id="c18"><rect x="1925" y="150" width="195" height="22"/></clipPath>
<rect x="1925" y="150" width="195" height="22" fill="#E69F00" stroke="#222" stroke-width="0.7"/>
<text clip-path="url(#c18)" x="1928" y="165" font-size="9.5" fill="#000">17:15 D 0Sw/2So</text></g>
<rect x="575" y="180" width="30" height="22" fill="url(#cool)" stroke="#888" stroke-width="0.6"/>
<g><title>Pickup Vehicle8, anchor 09:45, 2 students, route 57 min, max ride 43 min, 1 Sw / 1 So, 08:48-09:45</title><clipPath id="c19"><rect x="404" y="180" width="171" height="22"/></clipPath>
<rect x="404" y="180" width="171" height="22" fill="#0072B2" stroke="#222" stroke-width="0.7"/>
<text clip-path="url(#c19)" x="407" y="195" font-size="9.5" fill="#fff">09:45 P 1Sw/1So</text></g>
<rect x="1268" y="180" width="30" height="22" fill="url(#cool)" stroke="#888" stroke-width="0.6"/>
<g><title>Drop-off Vehicle8, anchor 12:15, 2 students, route 81 min, max ride 44 min, 0 Sw / 2 So, 12:15-13:36</title><clipPath id="c20"><rect x="1025" y="180" width="243" height="22"/></clipPath>
<rect x="1025" y="180" width="243" height="22" fill="#E69F00" stroke="#222" stroke-width="0.7"/>
<text clip-path="url(#c20)" x="1028" y="195" font-size="9.5" fill="#000">12:15 D 0Sw/2So</text></g>
</svg>
