<svg xmlns="http://www.w3.org/2000/svg" viewBox="0 0 1332 366" width="1332" height="366" font-family="Arial, Helvetica, sans-serif"><rect width="100%" height="100%" fill="#ffffff"/>
<text x="24" y="24" font-size="16" font-weight="bold" fill="#111">Resource requirement, Thursday 2026-10-08, R=50 min, tour limit 150 min, 5 vehicles required</text>
<text x="24" y="42" font-size="12" fill="#444">Peak busy 5 at 12:39-12:55; peak on route 5 at 12:39-12:45</text>
<rect x="24" y="52" width="16" height="10" fill="#56B4E9" fill-opacity="0.35" stroke="#1f7fb8" stroke-width="1.2"/><text x="46" y="62" font-size="12" fill="#222">Busy incl. 10-min cooldown</text>
<line x1="224" y1="57" x2="240" y2="57" stroke="#111111" stroke-width="2.2"/><text x="246" y="62" font-size="12" fill="#222">On route</text>
<line x1="314" y1="57" x2="330" y2="57" stroke="#D55E00" stroke-width="1.6" stroke-dasharray="7 4"/><text x="336" y="62" font-size="12" fill="#222">Vehicles required</text>
<rect x="454" y="55" width="16" height="5" fill="#D55E00"/><text x="476" y="62" font-size="12" fill="#222">Peak window (busy)</text>
<rect x="60" y="80" width="1248" height="240" fill="#fff" stroke="#888" stroke-width="0.8"/>
<line x1="60" y1="320" x2="1308" y2="320" stroke="#e2e2e2" stroke-width="0.7"/>
<text x="55" y="324" font-size="11" text-anchor="end" fill="#333">0</text>
<line x1="60" y1="280" x2="1308" y2="280" stroke="#e2e2e2" stroke-width="0.7"/>
<text x="55" y="284" font-size="11" text-anchor="end" fill="#333">1</text>
<line x1="60" y1="240" x2="1308" y2="240" stroke="#e2e2e2" stroke-width="0.7"/>
<text x="55" y="244" font-size="11" text-anchor="end" fill="#333">2</text>
<line x1="60" y1="200" x2="1308" y2="200" stroke="#e2e2e2" stroke-width="0.7"/>
<text x="55" y="204" font-size="11" text-anchor="end" fill="#333">3</text>
<line x1="60" y1="160" x2="1308" y2="160" stroke="#e2e2e2" stroke-width="0.7"/>
<text x="55" y="164" font-size="11" text-anchor="end" fill="#333">4</text>
<line x1="60" y1="120" x2="1308" y2="120" stroke="#e2e2e2" stroke-width="0.7"/>
<text x="55" y="124" font-size="11" text-anchor="end" fill="#333">5</text>
<line x1="60" y1="80" x2="1308" y2="80" stroke="#e2e2e2" stroke-width="0.7"/>
<text x="55" y="84" font-size="11" text-anchor="end" fill="#333">6</text>
<line x1="60" y1="80" x2="60" y2="320" stroke="#bbb" stroke-width="0.7"/>
<text x="60" y="334" font-size="11" text-anchor="middle" fill="#333">07:00</text>
<line x1="156" y1="80" x2="156" y2="320" stroke="#bbb" stroke-width="0.7"/>
<text x="156" y="334" font-size="11" text-anchor="middle" fill="#333">08:00</text>
<line x1="252" y1="80" x2="252" y2="320" stroke="#bbb" stroke-width="0.7"/>
<text x="252" y="334" font-size="11" text-anchor="middle" fill="#333">09:00</text>
<line x1="348" y1="80" x2="348" y2="320" stroke="#bbb" stroke-width="0.7"/>
<text x="348" y="334" font-size="11" text-anchor="middle" fill="#333">10:00</text>
<line x1="444" y1="80" x2="444" y2="320" stroke="#bbb" stroke-width="0.7"/>
<text x="444" y="334" font-size="11" text-anchor="middle" fill="#333">11:00</text>
<line x1="540" y1="80" x2="540" y2="320" stroke="#bbb" stroke-width="0.7"/>
<text x="540" y="334" font-size="11" text-anchor="middle" fill="#333">12:00</text>
<line x1="636" y1="80" x2="636" y2="320" stroke="#bbb" stroke-width="0.7"/>
<text x="636" y="334" font-size="11" text-anchor="middle" fill="#333">13:00</text>
<line x1="732" y1="80" x2="732" y2="320" stroke="#bbb" stroke-width="0.7"/>
<text x="732" y="334" font-size="11" text-anchor="middle" fill="#333">14:00</text>
<line x1="828" y1="80" x2="828" y2="320" stroke="#bbb" stroke-width="0.7"/>
<text x="828" y="334" font-size="11" text-anchor="middle" fill="#333">15:00</text>
<line x1="924" y1="80" x2="924" y2="320" stroke="#bbb" stroke-width="0.7"/>
<text x="924" y="334" font-size="11" text-anchor="middle" fill="#333">16:00</text>
<line x1="1020" y1="80" x2="1020" y2="320" stroke="#bbb" stroke-width="0.7"/>
<text x="1020" y="334" font-size="11" text-anchor="middle" fill="#333">17:00</text>
<line x1="1116" y1="80" x2="1116" y2="320" stroke="#bbb" stroke-width="0.7"/>
<text x="1116" y="334" font-size="11" text-anchor="middle" fill="#333">18:00</text>
<line x1="1212" y1="80" x2="1212" y2="320" stroke="#bbb" stroke-width="0.7"/>
<text x="1212" y="334" font-size="11" text-anchor="middle" fill="#333">19:00</text>
<line x1="1308" y1="80" x2="1308" y2="320" stroke="#bbb" stroke-width="0.7"/>
<text x="1308" y="334" font-size="11" text-anchor="middle" fill="#333">20:00</text>
<text transform="rotate(-90 28 200)" x="28" y="200" font-size="12" text-anchor="middle" fill="#222">Vehicles</text>
<polygon points="108,320 108,280 117.6,280 117.6,240 122.4,240 122.4,200 228,200 228,200 244,200 244,320 269.6,320 269.6,280 375.2,280 375.2,240 416.8,240 416.8,200 420,200 420,200 436,200 436,240 468,240 468,200 488.8,200 488.8,160 516,160 516,160 532,160 532,280 557.6,280 557.6,240 564,240 564,160 602.4,160 602.4,120 612,120 612,120 628,120 628,200 652,200 652,200 660,200 660,160 661.6,160 661.6,160 668,160 668,200 677.6,200 677.6,240 692,240 692,200 708,200 708,200 724,200 724,240 725.6,240 725.6,240 741.6,240 741.6,280 756,280 756,200 804,200 804,200 820,200 820,240 824.8,240 824.8,240 840.8,240 840.8,280 852,280 852,200 895.2,200 895.2,200 900,200 900,200 911.2,200 911.2,240 916,240 916,280 948,280 948,160 951.2,160 951.2,160 967.2,160 967.2,200 1002.4,200 1002.4,200 1018.4,200 1018.4,240 1044,240 1044,160 1080.8,160 1080.8,160 1085.6,160 1085.6,160 1096.8,160 1096.8,200 1101.6,200 1101.6,240 1112.8,240 1112.8,240 1128.8,240 1128.8,280 1140,280 1140,240 1149.6,240 1149.6,240 1165.6,240 1165.6,280 1255.2,280 1255.2,280 1271.2,280 1271.2,320" fill="#56B4E9" fill-opacity="0.35" stroke="none"/>
<polyline points="108,280 117.6,280 117.6,240 122.4,240 122.4,200 228,200 228,200 244,200 244,320 269.6,320 269.6,280 375.2,280 375.2,240 416.8,240 416.8,200 420,200 420,200 436,200 436,240 468,240 468,200 488.8,200 488.8,160 516,160 516,160 532,160 532,280 557.6,280 557.6,240 564,240 564,160 602.4,160 602.4,120 612,120 612,120 628,120 628,200 652,200 652,200 660,200 660,160 661.6,160 661.6,160 668,160 668,200 677.6,200 677.6,240 692,240 692,200 708,200 708,200 724,200 724,240 725.6,240 725.6,240 741.6,240 741.6,280 756,280 756,200 804,200 804,200 820,200 820,240 824.8,240 824.8,240 840.8,240 840.8,280 852,280 852,200 895.2,200 895.2,200 900,200 900,200 911.2,200 911.2,240 916,240 916,280 948,280 948,160 951.2,160 951.2,160 967.2,160 967.2,200 1002.4,200 1002.4,200 1018.4,200 1018.4,240 1044,240 1044,160 1080.8,160 1080.8,160 1085.6,160 1085.6,160 1096.8,160 1096.8,200 1101.6,200 1101.6,240 1112.8,240 1112.8,240 1128.8,240 1128.8,280 1140,280 1140,240 1149.6,240 1149.6,240 1165.6,240 1165.6,280 1255.2,280 1255.2,280 1271.2,280" fill="none" stroke="#1f7fb8" stroke-width="1.2"/>
<polyline points="108,280 117.6,280 117.6,240 122.4,240 122.4,200 228,200 228,320 244,320 244,320 269.6,320 269.6,280 375.2,280 375.2,240 416.8,240 416.8,200 420,200 420,240 436,240 436,240 468,240 468,200 488.8,200 488.8,160 516,160 516,280 532,280 532,280 557.6,280 557.6,240 564,240 564,160 602.4,160 602.4,120 612,120 612,200 628,200 628,200 652,200 652,240 660,240 660,200 661.6,200 661.6,240 668,240 668,240 677.6,240 677.6,240 692,240 692,200 708,200 708,240 724,240 724,240 725.6,240 725.6,280 741.6,280 741.6,280 756,280 756,200 804,200 804,240 820,240 820,240 824.8,240 824.8,280 840.8,280 840.8,280 852,280 852,200 895.2,200 895.2,240 900,240 900,280 911.2,280 911.2,280 916,280 916,280 948,280 948,160 951.2,160 951.2,200 967.2,200 967.2,200 1002.4,200 1002.4,240 1018.4,240 1018.4,240 1044,240 1044,160 1080.8,160 1080.8,200 1085.6,200 1085.6,240 1096.8,240 1096.8,240 1101.6,240 1101.6,240 1112.8,240 1112.8,280 1128.8,280 1128.8,280 1140,280 1140,240 1149.6,240 1149.6,280 1165.6,280 1165.6,280 1255.2,280 1255.2,320 1271.2,320" fill="none" stroke="#111111" stroke-width="2.2"/>
<line x1="60" y1="120" x2="1308" y2="120" stroke="#D55E00" stroke-width="1.6" stroke-dasharray="7 4"/>
<text x="1304" y="116" font-size="12" font-weight="bold" text-anchor="end" fill="#D55E00">vehicles required = 5</text>
<rect x="602.4" y="117.5" width="25.6" height="5" fill="#D55E00"/>
<text x="615.2" y="113" font-size="11" text-anchor="middle" fill="#222">peak 5</text>
<rect x="108" y="80" width="9.6" height="240" fill="#000" fill-opacity="0"><title>07:30-07:36: 1 on route, 1 busy incl. 10-min cooldown</title></rect>
<rect x="117.6" y="80" width="4.8" height="240" fill="#000" fill-opacity="0"><title>07:36-07:39: 2 on route, 2 busy incl. 10-min cooldown</title></rect>
<rect x="122.4" y="80" width="105.6" height="240" fill="#000" fill-opacity="0"><title>07:39-08:45: 3 on route, 3 busy incl. 10-min cooldown</title></rect>
<rect x="228" y="80" width="16" height="240" fill="#000" fill-opacity="0"><title>08:45-08:55: 0 on route, 3 busy incl. 10-min cooldown</title></rect>
<rect x="244" y="80" width="25.6" height="240" fill="#000" fill-opacity="0"><title>08:55-09:11: 0 on route, 0 busy incl. 10-min cooldown</title></rect>
<rect x="269.6" y="80" width="105.6" height="240" fill="#000" fill-opacity="0"><title>09:11-10:17: 1 on route, 1 busy incl. 10-min cooldown</title></rect>
<rect x="375.2" y="80" width="41.6" height="240" fill="#000" fill-opacity="0"><title>10:17-10:43: 2 on route, 2 busy incl. 10-min cooldown</title></rect>
<rect x="416.8" y="80" width="3.2" height="240" fill="#000" fill-opacity="0"><title>10:43-10:45: 3 on route, 3 busy incl. 10-min cooldown</title></rect>
<rect x="420" y="80" width="16" height="240" fill="#000" fill-opacity="0"><title>10:45-10:55: 2 on route, 3 busy incl. 10-min cooldown</title></rect>
<rect x="436" y="80" width="32" height="240" fill="#000" fill-opacity="0"><title>10:55-11:15: 2 on route, 2 busy incl. 10-min cooldown</title></rect>
<rect x="468" y="80" width="20.8" height="240" fill="#000" fill-opacity="0"><title>11:15-11:28: 3 on route, 3 busy incl. 10-min cooldown</title></rect>
<rect x="488.8" y="80" width="27.2" height="240" fill="#000" fill-opacity="0"><title>11:28-11:45: 4 on route, 4 busy incl. 10-min cooldown</title></rect>
<rect x="516" y="80" width="16" height="240" fill="#000" fill-opacity="0"><title>11:45-11:55: 1 on route, 4 busy incl. 10-min cooldown</title></rect>
<rect x="532" y="80" width="25.6" height="240" fill="#000" fill-opacity="0"><title>11:55-12:11: 1 on route, 1 busy incl. 10-min cooldown</title></rect>
<rect x="557.6" y="80" width="6.4" height="240" fill="#000" fill-opacity="0"><title>12:11-12:15: 2 on route, 2 busy incl. 10-min cooldown</title></rect>
<rect x="564" y="80" width="38.4" height="240" fill="#000" fill-opacity="0"><title>12:15-12:39: 4 on route, 4 busy incl. 10-min cooldown</title></rect>
<rect x="602.4" y="80" width="9.6" height="240" fill="#000" fill-opacity="0"><title>12:39-12:45: 5 on route, 5 busy incl. 10-min cooldown</title></rect>
<rect x="612" y="80" width="16" height="240" fill="#000" fill-opacity="0"><title>12:45-12:55: 3 on route, 5 busy incl. 10-min cooldown</title></rect>
<rect x="628" y="80" width="24" height="240" fill="#000" fill-opacity="0"><title>12:55-13:10: 3 on route, 3 busy incl. 10-min cooldown</title></rect>
<rect x="652" y="80" width="8" height="240" fill="#000" fill-opacity="0"><title>13:10-13:15: 2 on route, 3 busy incl. 10-min cooldown</title></rect>
<rect x="660" y="80" width="1.6" height="240" fill="#000" fill-opacity="0"><title>13:15-13:16: 3 on route, 4 busy incl. 10-min cooldown</title></rect>
<rect x="661.6" y="80" width="6.4" height="240" fill="#000" fill-opacity="0"><title>13:16-13:20: 2 on route, 4 busy incl. 10-min cooldown</title></rect>
<rect x="668" y="80" width="9.6" height="240" fill="#000" fill-opacity="0"><title>13:20-13:26: 2 on route, 3 busy incl. 10-min cooldown</title></rect>
<rect x="677.6" y="80" width="14.4" height="240" fill="#000" fill-opacity="0"><title>13:26-13:35: 2 on route, 2 busy incl. 10-min cooldown</title></rect>
<rect x="692" y="80" width="16" height="240" fill="#000" fill-opacity="0"><title>13:35-13:45: 3 on route, 3 busy incl. 10-min cooldown</title></rect>
<rect x="708" y="80" width="16" height="240" fill="#000" fill-opacity="0"><title>13:45-13:55: 2 on route, 3 busy incl. 10-min cooldown</title></rect>
<rect x="724" y="80" width="1.6" height="240" fill="#000" fill-opacity="0"><title>13:55-13:56: 2 on route, 2 busy incl. 10-min cooldown</title></rect>
<rect x="725.6" y="80" width="16" height="240" fill="#000" fill-opacity="0"><title>13:56-14:06: 1 on route, 2 busy incl. 10-min cooldown</title></rect>
<rect x="741.6" y="80" width="14.4" height="240" fill="#000" fill-opacity="0"><title>14:06-14:15: 1 on route, 1 busy incl. 10-min cooldown</title></rect>
<rect x="756" y="80" width="48" height="240" fill="#000" fill-opacity="0"><title>14:15-14:45: 3 on route, 3 busy incl. 10-min cooldown</title></rect>
<rect x="804" y="80" width="16" height="240" fill="#000" fill-opacity="0"><title>14:45-14:55: 2 on route, 3 busy incl. 10-min cooldown</title></rect>
<rect x="820" y="80" width="4.8" height="240" fill="#000" fill-opacity="0"><title>14:55-14:58: 2 on route, 2 busy incl. 10-min cooldown</title></rect>
<rect x="824.8" y="80" width="16" height="240" fill="#000" fill-opacity="0"><title>14:58-15:08: 1 on route, 2 busy incl. 10-min cooldown</title></rect>
<rect x="840.8" y="80" width="11.2" height="240" fill="#000" fill-opacity="0"><title>15:08-15:15: 1 on route, 1 busy incl. 10-min cooldown</title></rect>
<rect x="852" y="80" width="43.2" height="240" fill="#000" fill-opacity="0"><title>15:15-15:42: 3 on route, 3 busy incl. 10-min cooldown</title></rect>
<rect x="895.2" y="80" width="4.8" height="240" fill="#000" fill-opacity="0"><title>15:42-15:45: 2 on route, 3 busy incl. 10-min cooldown</title></rect>
<rect x="900" y="80" width="11.2" height="240" fill="#000" fill-opacity="0"><title>15:45-15:52: 1 on route, 3 busy incl. 10-min cooldown</title></rect>
<rect x="911.2" y="80" width="4.8" height="240" fill="#000" fill-opacity="0"><title>15:52-15:55: 1 on route, 2 busy incl. 10-min cooldown</title></rect>
<rect x="916" y="80" width="32" height="240" fill="#000" fill-opacity="0"><title>15:55-16:15: 1 on route, 1 busy incl. 10-min cooldown</title></rect>
<rect x="948" y="80" width="3.2" height="240" fill="#000" fill-opacity="0"><title>16:15-16:17: 4 on route, 4 busy incl. 10-min cooldown</title></rect>
<rect x="951.2" y="80" width="16" height="240" fill="#000" fill-opacity="0"><title>16:17-16:27: 3 on route, 4 busy incl. 10-min cooldown</title></rect>
<rect x="967.2" y="80" width="35.2" height="240" fill="#000" fill-opacity="0"><title>16:27-16:49: 3 on route, 3 busy incl. 10-min cooldown</title></rect>
<rect x="1002.4" y="80" width="16" height="240" fill="#000" fill-opacity="0"><title>16:49-16:59: 2 on route, 3 busy incl. 10-min cooldown</title></rect>
<rect x="1018.4" y="80" width="25.6" height="240" fill="#000" fill-opacity="0"><title>16:59-17:15: 2 on route, 2 busy incl. 10-min cooldown</title></rect>
<rect x="1044" y="80" width="36.8" height="240" fill="#000" fill-opacity="0"><title>17:15-17:38: 4 on route, 4 busy incl. 10-min cooldown</title></rect>
<rect x="1080.8" y="80" width="4.8" height="240" fill="#000" fill-opacity="0"><title>17:38-17:41: 3 on route, 4 busy incl. 10-min cooldown</title></rect>
<rect x="1085.6" y="80" width="11.2" height="240" fill="#000" fill-opacity="0"><title>17:41-17:48: 2 on route, 4 busy incl. 10-min cooldown</title></rect>
<rect x="1096.8" y="80" width="4.8" height="240" fill="#000" fill-opacity="0"><title>17:48-17:51: 2 on route, 3 busy incl. 10-min cooldown</title></rect>
<rect x="1101.6" y="80" width="11.2" height="240" fill="#000" fill-opacity="0"><title>17:51-17:58: 2 on route, 2 busy incl. 10-min cooldown</title></rect>
<rect x="1112.8" y="80" width="16" height="240" fill="#000" fill-opacity="0"><title>17:58-18:08: 1 on route, 2 busy incl. 10-min cooldown</title></rect>
<rect x="1128.8" y="80" width="11.2" height="240" fill="#000" fill-opacity="0"><title>18:08-18:15: 1 on route, 1 busy incl. 10-min cooldown</title></rect>
<rect x="1140" y="80" width="9.6" height="240" fill="#000" fill-opacity="0"><title>18:15-18:21: 2 on route, 2 busy incl. 10-min cooldown</title></rect>
<rect x="1149.6" y="80" width="16" height="240" fill="#000" fill-opacity="0"><title>18:21-18:31: 1 on route, 2 busy incl. 10-min cooldown</title></rect>
<rect x="1165.6" y="80" width="89.6" height="240" fill="#000" fill-opacity="0"><title>18:31-19:27: 1 on route, 1 busy incl. 10-min cooldown</title></rect>
<rect x="1255.2" y="80" width="16" height="240" fill="#000" fill-opacity="0"><title>19:27-19:37: 0 on route, 1 busy incl. 10-min cooldown</title></rect>
<text x="684" y="354" font-size="12" text-anchor="middle" fill="#222">Time of day (HH:MM)</text>
</svg>
