<svg xmlns="http://www.w3.org/2000/svg" viewBox="0 0 1040 760" width="1040" height="760" font-family="Arial, Helvetica, sans-serif"><rect width="100%" height="100%" fill="#ffffff"/>
<defs><pattern id="hatchgrey" width="7" height="7" patternUnits="userSpaceOnUse" patternTransform="rotate(45)"><line x1="0" y1="0" x2="0" y2="7" stroke="#999" stroke-width="2"/></pattern><pattern id="hatchbad" width="6" height="6" patternUnits="userSpaceOnUse" patternTransform="rotate(45)"><rect width="6" height="6" fill="#E69F00"/><line x1="0" y1="0" x2="0" y2="6" stroke="#C00000" stroke-width="3"/></pattern></defs>
<text x="24" y="24" font-size="16" font-weight="bold" fill="#111">Weekly vehicles by scenario and ride limit R (shared y-scale), week of 2026-10-05</text>
<rect x="24" y="38" width="14" height="10" fill="#0072B2"/><text x="44" y="48" font-size="12" fill="#222">Large minibuses (fixed fleet)</text>
<rect x="234" y="38" width="14" height="10" fill="#E69F00"/><text x="254" y="48" font-size="12" fill="#222">Sedans (largest daily need)</text>
<rect x="434" y="38" width="14" height="10" fill="url(#hatchgrey)" stroke="#777"/><text x="454" y="48" font-size="12" fill="#222">Infeasible on at least one weekday</text>
<rect x="684" y="38" width="14" height="10" fill="url(#hatchbad)" stroke="#C00000"/><text x="704" y="48" font-size="12" fill="#222">Sedan count not proven over menu</text>
<text x="56" y="80" font-size="14" font-weight="bold" fill="#111">R = 50 min</text>
<rect x="56" y="92" width="450" height="260" fill="#fff" stroke="#888" stroke-width="0.8"/>
<line x1="56" y1="352" x2="506" y2="352" stroke="#e2e2e2" stroke-width="0.7"/>
<text x="51" y="356" font-size="11" text-anchor="end" fill="#333">0</text>
<line x1="56" y1="319.5" x2="506" y2="319.5" stroke="#e2e2e2" stroke-width="0.7"/>
<text x="51" y="323.5" font-size="11" text-anchor="end" fill="#333">1</text>
<line x1="56" y1="287" x2="506" y2="287" stroke="#e2e2e2" stroke-width="0.7"/>
<text x="51" y="291" font-size="11" text-anchor="end" fill="#333">2</text>
<line x1="56" y1="254.5" x2="506" y2="254.5" stroke="#e2e2e2" stroke-width="0.7"/>
<text x="51" y="258.5" font-size="11" text-anchor="end" fill="#333">3</text>
<line x1="56" y1="222" x2="506" y2="222" stroke="#e2e2e2" stroke-width="0.7"/>
<text x="51" y="226" font-size="11" text-anchor="end" fill="#333">4</text>
<line x1="56" y1="189.5" x2="506" y2="189.5" stroke="#e2e2e2" stroke-width="0.7"/>
<text x="51" y="193.5" font-size="11" text-anchor="end" fill="#333">5</text>
<line x1="56" y1="157" x2="506" y2="157" stroke="#e2e2e2" stroke-width="0.7"/>
<text x="51" y="161" font-size="11" text-anchor="end" fill="#333">6</text>
<line x1="56" y1="124.5" x2="506" y2="124.5" stroke="#e2e2e2" stroke-width="0.7"/>
<text x="51" y="128.5" font-size="11" text-anchor="end" fill="#333">7</text>
<line x1="56" y1="92" x2="506" y2="92" stroke="#e2e2e2" stroke-width="0.7"/>
<text x="51" y="96" font-size="11" text-anchor="end" fill="#333">8</text>
<text x="112.25" y="367" font-size="12" text-anchor="middle" fill="#111">A</text>
<text x="112.25" y="380" font-size="10" text-anchor="middle" fill="#444">large 6/5/6/5/6</text>
<rect x="83.25" y="157" width="58" height="195" fill="#0072B2"><title>A: all-large minimum R=50: 6 large</title></rect>
<text x="112.25" y="152" font-size="12" font-weight="bold" text-anchor="middle" fill="#111">6</text>
<text x="112.25" y="258.5" font-size="11" text-anchor="middle" fill="#fff">6</text>
<text x="224.75" y="367" font-size="12" text-anchor="middle" fill="#111">B (1)</text>
<text x="224.75" y="380" font-size="10" text-anchor="middle" fill="#444">sedans x/x/x/x/x</text>
<rect x="195.75" y="96" width="58" height="256" fill="url(#hatchgrey)" fill-opacity="0.45" stroke="#777" stroke-dasharray="5 3"><title>B: 1 large + sedans R=50: infeasible on 5 of 5 days with 1 large vehicle(s)</title></rect>
<text transform="rotate(-90 224.75 222)" x="228.75" y="222" font-size="13" font-weight="bold" text-anchor="middle" fill="#333" stroke="#fff" stroke-width="3" paint-order="stroke">infeasible (5 of 5 days)</text>
<text x="337.25" y="367" font-size="12" text-anchor="middle" fill="#111">C (2)</text>
<text x="337.25" y="380" font-size="10" text-anchor="middle" fill="#444">sedans x/3/x/x/4</text>
<rect x="308.25" y="96" width="58" height="256" fill="url(#hatchgrey)" fill-opacity="0.45" stroke="#777" stroke-dasharray="5 3"><title>C: 2 large + sedans R=50: infeasible on 3 of 5 days with 2 large vehicle(s)</title></rect>
<text transform="rotate(-90 337.25 222)" x="341.25" y="222" font-size="13" font-weight="bold" text-anchor="middle" fill="#333" stroke="#fff" stroke-width="3" paint-order="stroke">infeasible (3 of 5 days)</text>
<text x="449.75" y="367" font-size="12" text-anchor="middle" fill="#111">D (3)</text>
<text x="449.75" y="380" font-size="10" text-anchor="middle" fill="#444">sedans 4/2/4/2/3</text>
<rect x="420.75" y="254.5" width="58" height="97.5" fill="#0072B2"><title>D: 3 large + sedans R=50: 3 large</title></rect>
<rect x="420.75" y="124.5" width="58" height="130" fill="#E69F00" stroke="#fff"><title>D: 3 large + sedans R=50: 4 sedans (max over days)</title></rect>
<text x="449.75" y="119.5" font-size="12" font-weight="bold" text-anchor="middle" fill="#111">7</text>
<text x="449.75" y="307.25" font-size="11" text-anchor="middle" fill="#fff">3</text>
<text x="449.75" y="193.5" font-size="11" text-anchor="middle" fill="#111">4</text>
<text x="576" y="80" font-size="14" font-weight="bold" fill="#111">R = 60 min</text>
<rect x="576" y="92" width="450" height="260" fill="#fff" stroke="#888" stroke-width="0.8"/>
<line x1="576" y1="352" x2="1026" y2="352" stroke="#e2e2e2" stroke-width="0.7"/>
<text x="571" y="356" font-size="11" text-anchor="end" fill="#333">0</text>
<line x1="576" y1="319.5" x2="1026" y2="319.5" stroke="#e2e2e2" stroke-width="0.7"/>
<text x="571" y="323.5" font-size="11" text-anchor="end" fill="#333">1</text>
<line x1="576" y1="287" x2="1026" y2="287" stroke="#e2e2e2" stroke-width="0.7"/>
<text x="571" y="291" font-size="11" text-anchor="end" fill="#333">2</text>
<line x1="576" y1="254.5" x2="1026" y2="254.5" stroke="#e2e2e2" stroke-width="0.7"/>
<text x="571" y="258.5" font-size="11" text-anchor="end" fill="#333">3</text>
<line x1="576" y1="222" x2="1026" y2="222" stroke="#e2e2e2" stroke-width="0.7"/>
<text x="571" y="226" font-size="11" text-anchor="end" fill="#333">4</text>
<line x1="576" y1="189.5" x2="1026" y2="189.5" stroke="#e2e2e2" stroke-width="0.7"/>
<text x="571" y="193.5" font-size="11" text-anchor="end" fill="#333">5</text>
<line x1="576" y1="157" x2="1026" y2="157" stroke="#e2e2e2" stroke-width="0.7"/>
<text x="571" y="161" font-size="11" text-anchor="end" fill="#333">6</text>
<line x1="576" y1="124.5" x2="1026" y2="124.5" stroke="#e2e2e2" stroke-width="0.7"/>
<text x="571" y="128.5" font-size="11" text-anchor="end" fill="#333">7</text>
<line x1="576" y1="92" x2="1026" y2="92" stroke="#e2e2e2" stroke-width="0.7"/>
<text x="571" y="96" font-size="11" text-anchor="end" fill="#333">8</text>
<text x="632.25" y="367" font-size="12" text-anchor="middle" fill="#111">A</text>
<text x="632.25" y="380" font-size="10" text-anchor="middle" fill="#444">large 5/4/6/4/5</text>
<rect x="603.25" y="157" width="58" height="195" fill="#0072B2"><title>A: all-large minimum R=60: 6 large</title></rect>
<text x="632.25" y="152" font-size="12" font-weight="bold" text-anchor="middle" fill="#111">6</text>
<text x="632.25" y="258.5" font-size="11" text-anchor="middle" fill="#fff">6</text>
<text x="744.75" y="367" font-size="12" text-anchor="middle" fill="#111">B (1)</text>
<text x="744.75" y="380" font-size="10" text-anchor="middle" fill="#444">sedans x/x/x/x/x</text>
<rect x="715.75" y="96" width="58" height="256" fill="url(#hatchgrey)" fill-opacity="0.45" stroke="#777" stroke-dasharray="5 3"><title>B: 1 large + sedans R=60: infeasible on 5 of 5 days with 1 large vehicle(s)</title></rect>
<text transform="rotate(-90 744.75 222)" x="748.75" y="222" font-size="13" font-weight="bold" text-anchor="middle" fill="#333" stroke="#fff" stroke-width="3" paint-order="stroke">infeasible (5 of 5 days)</text>
<text x="857.25" y="367" font-size="12" text-anchor="middle" fill="#111">C (2)</text>
<text x="857.25" y="380" font-size="10" text-anchor="middle" fill="#444">sedans x/2/x/2/3</text>
<rect x="828.25" y="96" width="58" height="256" fill="url(#hatchgrey)" fill-opacity="0.45" stroke="#777" stroke-dasharray="5 3"><title>C: 2 large + sedans R=60: infeasible on 2 of 5 days with 2 large vehicle(s)</title></rect>
<text transform="rotate(-90 857.25 222)" x="861.25" y="222" font-size="13" font-weight="bold" text-anchor="middle" fill="#333" stroke="#fff" stroke-width="3" paint-order="stroke">infeasible (2 of 5 days)</text>
<text x="969.75" y="367" font-size="12" text-anchor="middle" fill="#111">D (3)</text>
<text x="969.75" y="380" font-size="10" text-anchor="middle" fill="#444">sedans 2/1/3/1/2</text>
<rect x="940.75" y="254.5" width="58" height="97.5" fill="#0072B2"><title>D: 3 large + sedans R=60: 3 large</title></rect>
<rect x="940.75" y="157" width="58" height="97.5" fill="#E69F00" stroke="#fff"><title>D: 3 large + sedans R=60: 3 sedans (max over days)</title></rect>
<text x="969.75" y="152" font-size="12" font-weight="bold" text-anchor="middle" fill="#111">6</text>
<text x="969.75" y="307.25" font-size="11" text-anchor="middle" fill="#fff">3</text>
<text x="969.75" y="209.75" font-size="11" text-anchor="middle" fill="#111">3</text>
<text x="56" y="440" font-size="14" font-weight="bold" fill="#111">R = 70 min</text>
<rect x="56" y="452" width="450" height="260" fill="#fff" stroke="#888" stroke-width="0.8"/>
<line x1="56" y1="712" x2="506" y2="712" stroke="#e2e2e2" stroke-width="0.7"/>
<text x="51" y="716" font-size="11" text-anchor="end" fill="#333">0</text>
<line x1="56" y1="679.5" x2="506" y2="679.5" stroke="#e2e2e2" stroke-width="0.7"/>
<text x="51" y="683.5" font-size="11" text-anchor="end" fill="#333">1</text>
<line x1="56" y1="647" x2="506" y2="647" stroke="#e2e2e2" stroke-width="0.7"/>
<text x="51" y="651" font-size="11" text-anchor="end" fill="#333">2</text>
<line x1="56" y1="614.5" x2="506" y2="614.5" stroke="#e2e2e2" stroke-width="0.7"/>
<text x="51" y="618.5" font-size="11" text-anchor="end" fill="#333">3</text>
<line x1="56" y1="582" x2="506" y2="582" stroke="#e2e2e2" stroke-width="0.7"/>
<text x="51" y="586" font-size="11" text-anchor="end" fill="#333">4</text>
<line x1="56" y1="549.5" x2="506" y2="549.5" stroke="#e2e2e2" stroke-width="0.7"/>
<text x="51" y="553.5" font-size="11" text-anchor="end" fill="#333">5</text>
<line x1="56" y1="517" x2="506" y2="517" stroke="#e2e2e2" stroke-width="0.7"/>
<text x="51" y="521" font-size="11" text-anchor="end" fill="#333">6</text>
<line x1="56" y1="484.5" x2="506" y2="484.5" stroke="#e2e2e2" stroke-width="0.7"/>
<text x="51" y="488.5" font-size="11" text-anchor="end" fill="#333">7</text>
<line x1="56" y1="452" x2="506" y2="452" stroke="#e2e2e2" stroke-width="0.7"/>
<text x="51" y="456" font-size="11" text-anchor="end" fill="#333">8</text>
<text x="112.25" y="727" font-size="12" text-anchor="middle" fill="#111">A</text>
<text x="112.25" y="740" font-size="10" text-anchor="middle" fill="#444">large 4/4/6/4/5</text>
<rect x="83.25" y="517" width="58" height="195" fill="#0072B2"><title>A: all-large minimum R=70: 6 large</title></rect>
<text x="112.25" y="512" font-size="12" font-weight="bold" text-anchor="middle" fill="#111">6</text>
<text x="112.25" y="618.5" font-size="11" text-anchor="middle" fill="#fff">6</text>
<text x="224.75" y="727" font-size="12" text-anchor="middle" fill="#111">B (1)</text>
<text x="224.75" y="740" font-size="10" text-anchor="middle" fill="#444">sedans x/x/x/x/x</text>
<rect x="195.75" y="456" width="58" height="256" fill="url(#hatchgrey)" fill-opacity="0.45" stroke="#777" stroke-dasharray="5 3"><title>B: 1 large + sedans R=70: infeasible on 5 of 5 days with 1 large vehicle(s)</title></rect>
<text transform="rotate(-90 224.75 582)" x="228.75" y="582" font-size="13" font-weight="bold" text-anchor="middle" fill="#333" stroke="#fff" stroke-width="3" paint-order="stroke">infeasible (5 of 5 days)</text>
<text x="337.25" y="727" font-size="12" text-anchor="middle" fill="#111">C (2)</text>
<text x="337.25" y="740" font-size="10" text-anchor="middle" fill="#444">sedans 3/x/x/2/3</text>
<rect x="308.25" y="456" width="58" height="256" fill="url(#hatchgrey)" fill-opacity="0.45" stroke="#777" stroke-dasharray="5 3"><title>C: 2 large + sedans R=70: infeasible on 2 of 5 days with 2 large vehicle(s)</title></rect>
<text transform="rotate(-90 337.25 582)" x="341.25" y="582" font-size="13" font-weight="bold" text-anchor="middle" fill="#333" stroke="#fff" stroke-width="3" paint-order="stroke">infeasible (2 of 5 days)</text>
<text x="449.75" y="727" font-size="12" text-anchor="middle" fill="#111">D (3)</text>
<text x="449.75" y="740" font-size="10" text-anchor="middle" fill="#444">sedans 1/1/3/1/2</text>
<rect x="420.75" y="614.5" width="58" height="97.5" fill="#0072B2"><title>D: 3 large + sedans R=70: 3 large</title></rect>
<rect x="420.75" y="517" width="58" height="97.5" fill="#E69F00" stroke="#fff"><title>D: 3 large + sedans R=70: 3 sedans (max over days)</title></rect>
<text x="449.75" y="512" font-size="12" font-weight="bold" text-anchor="middle" fill="#111">6</text>
<text x="449.75" y="667.25" font-size="11" text-anchor="middle" fill="#fff">3</text>
<text x="449.75" y="569.75" font-size="11" text-anchor="middle" fill="#111">3</text>
<text x="576" y="440" font-size="14" font-weight="bold" fill="#111">R = 90 min</text>
<rect x="576" y="452" width="450" height="260" fill="#fff" stroke="#888" stroke-width="0.8"/>
<line x1="576" y1="712" x2="1026" y2="712" stroke="#e2e2e2" stroke-width="0.7"/>
<text x="571" y="716" font-size="11" text-anchor="end" fill="#333">0</text>
<line x1="576" y1="679.5" x2="1026" y2="679.5" stroke="#e2e2e2" stroke-width="0.7"/>
<text x="571" y="683.5" font-size="11" text-anchor="end" fill="#333">1</text>
<line x1="576" y1="647" x2="1026" y2="647" stroke="#e2e2e2" stroke-width="0.7"/>
<text x="571" y="651" font-size="11" text-anchor="end" fill="#333">2</text>
<line x1="576" y1="614.5" x2="1026" y2="614.5" stroke="#e2e2e2" stroke-width="0.7"/>
<text x="571" y="618.5" font-size="11" text-anchor="end" fill="#333">3</text>
<line x1="576" y1="582" x2="1026" y2="582" stroke="#e2e2e2" stroke-width="0.7"/>
<text x="571" y="586" font-size="11" text-anchor="end" fill="#333">4</text>
<line x1="576" y1="549.5" x2="1026" y2="549.5" stroke="#e2e2e2" stroke-width="0.7"/>
<text x="571" y="553.5" font-size="11" text-anchor="end" fill="#333">5</text>
<line x1="576" y1="517" x2="1026" y2="517" stroke="#e2e2e2" stroke-width="0.7"/>
<text x="571" y="521" font-size="11" text-anchor="end" fill="#333">6</text>
<line x1="576" y1="484.5" x2="1026" y2="484.5" stroke="#e2e2e2" stroke-width="0.7"/>
<text x="571" y="488.5" font-size="11" text-anchor="end" fill="#333">7</text>
<line x1="576" y1="452" x2="1026" y2="452" stroke="#e2e2e2" stroke-width="0.7"/>
<text x="571" y="456" font-size="11" text-anchor="end" fill="#333">8</text>
<text x="632.25" y="727" font-size="12" text-anchor="middle" fill="#111">A</text>
<text x="632.25" y="740" font-size="10" text-anchor="middle" fill="#444">large 4/3/4/4/4</text>
<rect x="603.25" y="582" width="58" height="130" fill="#0072B2"><title>A: all-large minimum R=90: 4 large</title></rect>
<text x="632.25" y="577" font-size="12" font-weight="bold" text-anchor="middle" fill="#111">4</text>
<text x="632.25" y="651" font-size="11" text-anchor="middle" fill="#fff">4</text>
<text x="744.75" y="727" font-size="12" text-anchor="middle" fill="#111">B (1)</text>
<text x="744.75" y="740" font-size="10" text-anchor="middle" fill="#444">sedans x/x/x/x/x</text>
<rect x="715.75" y="456" width="58" height="256" fill="url(#hatchgrey)" fill-opacity="0.45" stroke="#777" stroke-dasharray="5 3"><title>B: 1 large + sedans R=90: infeasible on 5 of 5 days with 1 large vehicle(s)</title></rect>
<text transform="rotate(-90 744.75 582)" x="748.75" y="582" font-size="13" font-weight="bold" text-anchor="middle" fill="#333" stroke="#fff" stroke-width="3" paint-order="stroke">infeasible (5 of 5 days)</text>
<text x="857.25" y="727" font-size="12" text-anchor="middle" fill="#111">C (2)</text>
<text x="857.25" y="740" font-size="10" text-anchor="middle" fill="#444">sedans 2/x/x/2/2</text>
<rect x="828.25" y="456" width="58" height="256" fill="url(#hatchgrey)" fill-opacity="0.45" stroke="#777" stroke-dasharray="5 3"><title>C: 2 large + sedans R=90: infeasible on 2 of 5 days with 2 large vehicle(s)</title></rect>
<text transform="rotate(-90 857.25 582)" x="861.25" y="582" font-size="13" font-weight="bold" text-anchor="middle" fill="#333" stroke="#fff" stroke-width="3" paint-order="stroke">infeasible (2 of 5 days)</text>
<text x="969.75" y="727" font-size="12" text-anchor="middle" fill="#111">D (3)</text>
<text x="969.75" y="740" font-size="10" text-anchor="middle" fill="#444">sedans 1/0/1/1/0</text>
<rect x="940.75" y="614.5" width="58" height="97.5" fill="#0072B2"><title>D: 3 large + sedans R=90: 3 large</title></rect>
<rect x="940.75" y="582" width="58" height="32.5" fill="#E69F00" stroke="#fff"><title>D: 3 large + sedans R=90: 1 sedans (max over days)</title></rect>
<text x="969.75" y="577" font-size="12" font-weight="bold" text-anchor="middle" fill="#111">4</text>
<text x="969.75" y="667.25" font-size="11" text-anchor="middle" fill="#fff">3</text>
<text x="969.75" y="602.25" font-size="11" text-anchor="middle" fill="#111">1</text>
</svg>
