<svg xmlns="http://www.w3.org/2000/svg" viewBox="0 0 1332 366" width="1332" height="366" font-family="Arial, Helvetica, sans-serif"><rect width="100%" height="100%" fill="#ffffff"/>
<text x="24" y="24" font-size="16" font-weight="bold" fill="#111">Resource requirement, Friday 2026-10-09, R=60 min, tour limit 150 min, 5 vehicles required</text>
<text x="24" y="42" font-size="12" fill="#444">Peak busy 5 at 13:15-13:33; peak on route 5 at 13:15-13:23</text>
<rect x="24" y="52" width="16" height="10" fill="#56B4E9" fill-opacity="0.35" stroke="#1f7fb8" stroke-width="1.2"/><text x="46" y="62" font-size="12" fill="#222">Busy incl. 10-min cooldown</text>
<line x1="224" y1="57" x2="240" y2="57" stroke="#111111" stroke-width="2.2"/><text x="246" y="62" font-size="12" fill="#222">On route</text>
<line x1="314" y1="57" x2="330" y2="57" stroke="#D55E00" stroke-width="1.6" stroke-dasharray="7 4"/><text x="336" y="62" font-size="12" fill="#222">Vehicles required</text>
<rect x="454" y="55" width="16" height="5" fill="#D55E00"/><text x="476" y="62" font-size="12" fill="#222">Peak window (busy)</text>
<rect x="60" y="80" width="1248" height="240" fill="#fff" stroke="#888" stroke-width="0.8"/>
<line x1="60" y1="320" x2="1308" y2="320" stroke="#e2e2e2" stroke-width="0.7"/>
<text x="55" y="324" font-size="11" text-anchor="end" fill="#333">0</text>
<line x1="60" y1="280" x2="1308" y2="280" stroke="#e2e2e2" stroke-width="0.7"/>
<text x="55" y="284" font-size="11" text-anchor="end" fill="#333">1</text>
<line x1="60" y1="240" x2="1308" y2="240" stroke="#e2e2e2" stroke-width="0.7"/>
<text x="55" y="244" font-size="11" text-anchor="end" fill="#333">2</text>
<line x1="60" y1="200" x2="1308" y2="200" stroke="#e2e2e2" stroke-width="0.7"/>
<text x="55" y="204" font-size="11" text-anchor="end" fill="#333">3</text>
<line x1="60" y1="160" x2="1308" y2="160" stroke="#e2e2e2" stroke-width="0.7"/>
<text x="55" y="164" font-size="11" text-anchor="end" fill="#333">4</text>
<line x1="60" y1="120" x2="1308" y2="120" stroke="#e2e2e2" stroke-width="0.7"/>
<text x="55" y="124" font-size="11" text-anchor="end" fill="#333">5</text>
<line x1="60" y1="80" x2="1308" y2="80" stroke="#e2e2e2" stroke-width="0.7"/>
<text x="55" y="84" font-size="11" text-anchor="end" fill="#333">6</text>
<line x1="60" y1="80" x2="60" y2="320" stroke="#bbb" stroke-width="0.7"/>
<text x="60" y="334" font-size="11" text-anchor="middle" fill="#333">07:00</text>
<line x1="156" y1="80" x2="156" y2="320" stroke="#bbb" stroke-width="0.7"/>
<text x="156" y="334" font-size="11" text-anchor="middle" fill="#333">08:00</text>
<line x1="252" y1="80" x2="252" y2="320" stroke="#bbb" stroke-width="0.7"/>
<text x="252" y="334" font-size="11" text-anchor="middle" fill="#333">09:00</text>
<line x1="348" y1="80" x2="348" y2="320" stroke="#bbb" stroke-width="0.7"/>
<text x="348" y="334" font-size="11" text-anchor="middle" fill="#333">10:00</text>
<line x1="444" y1="80" x2="444" y2="320" stroke="#bbb" stroke-width="0.7"/>
<text x="444" y="334" font-size="11" text-anchor="middle" fill="#333">11:00</text>
<line x1="540" y1="80" x2="540" y2="320" stroke="#bbb" stroke-width="0.7"/>
<text x="540" y="334" font-size="11" text-anchor="middle" fill="#333">12:00</text>
<line x1="636" y1="80" x2="636" y2="320" stroke="#bbb" stroke-width="0.7"/>
<text x="636" y="334" font-size="11" text-anchor="middle" fill="#333">13:00</text>
<line x1="732" y1="80" x2="732" y2="320" stroke="#bbb" stroke-width="0.7"/>
<text x="732" y="334" font-size="11" text-anchor="middle" fill="#333">14:00</text>
<line x1="828" y1="80" x2="828" y2="320" stroke="#bbb" stroke-width="0.7"/>
<text x="828" y="334" font-size="11" text-anchor="middle" fill="#333">15:00</text>
<line x1="924" y1="80" x2="924" y2="320" stroke="#bbb" stroke-width="0.7"/>
<text x="924" y="334" font-size="11" text-anchor="middle" fill="#333">16:00</text>
<line x1="1020" y1="80" x2="1020" y2="320" stroke="#bbb" stroke-width="0.7"/>
<text x="1020" y="334" font-size="11" text-anchor="middle" fill="#333">17:00</text>
<line x1="1116" y1="80" x2="1116" y2="320" stroke="#bbb" stroke-width="0.7"/>
<text x="1116" y="334" font-size="11" text-anchor="middle" fill="#333">18:00</text>
<line x1="1212" y1="80" x2="1212" y2="320" stroke="#bbb" stroke-width="0.7"/>
<text x="1212" y="334" font-size="11" text-anchor="middle" fill="#333">19:00</text>
<line x1="1308" y1="80" x2="1308" y2="320" stroke="#bbb" stroke-width="0.7"/>
<text x="1308" y="334" font-size="11" text-anchor="middle" fill="#333">20:00</text>
<text transform="rotate(-90 28 200)" x="28" y="200" font-size="12" text-anchor="middle" fill="#222">Vehicles</text>
<polygon points="79.2,320 79.2,280 85.6,280 85.6,240 103.2,240 103.2,200 104.8,200 104.8,160 228,160 228,160 244,160 244,320 260,320 260,280 324,280 324,280 340,280 340,320 549.6,320 549.6,280 564,280 564,200 639.2,200 639.2,160 660,160 660,120 672.8,120 672.8,120 688.8,120 688.8,160 708,160 708,160 711.2,160 711.2,160 724,160 724,240 727.2,240 727.2,280 781.6,280 781.6,280 797.6,280 797.6,320 948,320 948,280 1031.2,280 1031.2,280 1044,280 1044,160 1047.2,160 1047.2,200 1064.8,200 1064.8,200 1080.8,200 1080.8,240 1140,240 1140,200 1173.6,200 1173.6,200 1189.6,200 1189.6,240 1199.2,240 1199.2,240 1205.6,240 1205.6,280 1215.2,280 1215.2,320" fill="#56B4E9" fill-opacity="0.35" stroke="none"/>
<polyline points="79.2,280 85.6,280 85.6,240 103.2,240 103.2,200 104.8,200 104.8,160 228,160 228,160 244,160 244,320 260,320 260,280 324,280 324,280 340,280 340,320 549.6,320 549.6,280 564,280 564,200 639.2,200 639.2,160 660,160 660,120 672.8,120 672.8,120 688.8,120 688.8,160 708,160 708,160 711.2,160 711.2,160 724,160 724,240 727.2,240 727.2,280 781.6,280 781.6,280 797.6,280 797.6,320 948,320 948,280 1031.2,280 1031.2,280 1044,280 1044,160 1047.2,160 1047.2,200 1064.8,200 1064.8,200 1080.8,200 1080.8,240 1140,240 1140,200 1173.6,200 1173.6,200 1189.6,200 1189.6,240 1199.2,240 1199.2,240 1205.6,240 1205.6,280 1215.2,280" fill="none" stroke="#1f7fb8" stroke-width="1.2"/>
<polyline points="79.2,280 85.6,280 85.6,240 103.2,240 103.2,200 104.8,200 104.8,160 228,160 228,320 244,320 244,320 260,320 260,280 324,280 324,320 340,320 340,320 549.6,320 549.6,280 564,280 564,200 639.2,200 639.2,160 660,160 660,120 672.8,120 672.8,160 688.8,160 688.8,160 708,160 708,240 711.2,240 711.2,280 724,280 724,280 727.2,280 727.2,280 781.6,280 781.6,320 797.6,320 797.6,320 948,320 948,280 1031.2,280 1031.2,320 1044,320 1044,200 1047.2,200 1047.2,200 1064.8,200 1064.8,240 1080.8,240 1080.8,240 1140,240 1140,200 1173.6,200 1173.6,240 1189.6,240 1189.6,280 1199.2,280 1199.2,320 1205.6,320 1205.6,320 1215.2,320" fill="none" stroke="#111111" stroke-width="2.2"/>
<line x1="60" y1="120" x2="1308" y2="120" stroke="#D55E00" stroke-width="1.6" stroke-dasharray="7 4"/>
<text x="1304" y="116" font-size="12" font-weight="bold" text-anchor="end" fill="#D55E00">vehicles required = 5</text>
<rect x="660" y="117.5" width="28.8" height="5" fill="#D55E00"/>
<text x="674.4" y="113" font-size="11" text-anchor="middle" fill="#222">peak 5</text>
<rect x="79.2" y="80" width="6.4" height="240" fill="#000" fill-opacity="0"><title>07:12-07:16: 1 on route, 1 busy incl. 10-min cooldown</title></rect>
<rect x="85.6" y="80" width="17.6" height="240" fill="#000" fill-opacity="0"><title>07:16-07:27: 2 on route, 2 busy incl. 10-min cooldown</title></rect>
<rect x="103.2" y="80" width="1.6" height="240" fill="#000" fill-opacity="0"><title>07:27-07:28: 3 on route, 3 busy incl. 10-min cooldown</title></rect>
<rect x="104.8" y="80" width="123.2" height="240" fill="#000" fill-opacity="0"><title>07:28-08:45: 4 on route, 4 busy incl. 10-min cooldown</title></rect>
<rect x="228" y="80" width="16" height="240" fill="#000" fill-opacity="0"><title>08:45-08:55: 0 on route, 4 busy incl. 10-min cooldown</title></rect>
<rect x="244" y="80" width="16" height="240" fill="#000" fill-opacity="0"><title>08:55-09:05: 0 on route, 0 busy incl. 10-min cooldown</title></rect>
<rect x="260" y="80" width="64" height="240" fill="#000" fill-opacity="0"><title>09:05-09:45: 1 on route, 1 busy incl. 10-min cooldown</title></rect>
<rect x="324" y="80" width="16" height="240" fill="#000" fill-opacity="0"><title>09:45-09:55: 0 on route, 1 busy incl. 10-min cooldown</title></rect>
<rect x="340" y="80" width="209.6" height="240" fill="#000" fill-opacity="0"><title>09:55-12:06: 0 on route, 0 busy incl. 10-min cooldown</title></rect>
<rect x="549.6" y="80" width="14.4" height="240" fill="#000" fill-opacity="0"><title>12:06-12:15: 1 on route, 1 busy incl. 10-min cooldown</title></rect>
<rect x="564" y="80" width="75.2" height="240" fill="#000" fill-opacity="0"><title>12:15-13:02: 3 on route, 3 busy incl. 10-min cooldown</title></rect>
<rect x="639.2" y="80" width="20.8" height="240" fill="#000" fill-opacity="0"><title>13:02-13:15: 4 on route, 4 busy incl. 10-min cooldown</title></rect>
<rect x="660" y="80" width="12.8" height="240" fill="#000" fill-opacity="0"><title>13:15-13:23: 5 on route, 5 busy incl. 10-min cooldown</title></rect>
<rect x="672.8" y="80" width="16" height="240" fill="#000" fill-opacity="0"><title>13:23-13:33: 4 on route, 5 busy incl. 10-min cooldown</title></rect>
<rect x="688.8" y="80" width="19.2" height="240" fill="#000" fill-opacity="0"><title>13:33-13:45: 4 on route, 4 busy incl. 10-min cooldown</title></rect>
<rect x="708" y="80" width="3.2" height="240" fill="#000" fill-opacity="0"><title>13:45-13:47: 2 on route, 4 busy incl. 10-min cooldown</title></rect>
<rect x="711.2" y="80" width="12.8" height="240" fill="#000" fill-opacity="0"><title>13:47-13:55: 1 on route, 4 busy incl. 10-min cooldown</title></rect>
<rect x="724" y="80" width="3.2" height="240" fill="#000" fill-opacity="0"><title>13:55-13:57: 1 on route, 2 busy incl. 10-min cooldown</title></rect>
<rect x="727.2" y="80" width="54.4" height="240" fill="#000" fill-opacity="0"><title>13:57-14:31: 1 on route, 1 busy incl. 10-min cooldown</title></rect>
<rect x="781.6" y="80" width="16" height="240" fill="#000" fill-opacity="0"><title>14:31-14:41: 0 on route, 1 busy incl. 10-min cooldown</title></rect>
<rect x="797.6" y="80" width="150.4" height="240" fill="#000" fill-opacity="0"><title>14:41-16:15: 0 on route, 0 busy incl. 10-min cooldown</title></rect>
<rect x="948" y="80" width="83.2" height="240" fill="#000" fill-opacity="0"><title>16:15-17:07: 1 on route, 1 busy incl. 10-min cooldown</title></rect>
<rect x="1031.2" y="80" width="12.8" height="240" fill="#000" fill-opacity="0"><title>17:07-17:15: 0 on route, 1 busy incl. 10-min cooldown</title></rect>
<rect x="1044" y="80" width="3.2" height="240" fill="#000" fill-opacity="0"><title>17:15-17:17: 3 on route, 4 busy incl. 10-min cooldown</title></rect>
<rect x="1047.2" y="80" width="17.6" height="240" fill="#000" fill-opacity="0"><title>17:17-17:28: 3 on route, 3 busy incl. 10-min cooldown</title></rect>
<rect x="1064.8" y="80" width="16" height="240" fill="#000" fill-opacity="0"><title>17:28-17:38: 2 on route, 3 busy incl. 10-min cooldown</title></rect>
<rect x="1080.8" y="80" width="59.2" height="240" fill="#000" fill-opacity="0"><title>17:38-18:15: 2 on route, 2 busy incl. 10-min cooldown</title></rect>
<rect x="1140" y="80" width="33.6" height="240" fill="#000" fill-opacity="0"><title>18:15-18:36: 3 on route, 3 busy incl. 10-min cooldown</title></rect>
<rect x="1173.6" y="80" width="16" height="240" fill="#000" fill-opacity="0"><title>18:36-18:46: 2 on route, 3 busy incl. 10-min cooldown</title></rect>
<rect x="1189.6" y="80" width="9.6" height="240" fill="#000" fill-opacity="0"><title>18:46-18:52: 1 on route, 2 busy incl. 10-min cooldown</title></rect>
<rect x="1199.2" y="80" width="6.4" height="240" fill="#000" fill-opacity="0"><title>18:52-18:56: 0 on route, 2 busy incl. 10-min cooldown</title></rect>
<rect x="1205.6" y="80" width="9.6" height="240" fill="#000" fill-opacity="0"><title>18:56-19:02: 0 on route, 1 busy incl. 10-min cooldown</title></rect>
<text x="684" y="354" font-size="12" text-anchor="middle" fill="#222">Time of day (HH:MM)</text>
</svg>
