<svg xmlns="http://www.w3.org/2000/svg" viewBox="0 0 1524 390" width="1524" height="390" font-family="Arial, Helvetica, sans-serif"><rect width="100%" height="100%" fill="#ffffff"/>
<text x="24" y="24" font-size="16" font-weight="bold" fill="#111">Busy vehicles incl. 10-min cooldown by ride limit R, Tuesday 2026-10-06</text>
<text x="24" y="42" font-size="12" fill="#444">Event-based step functions; hover a segment for the counts of all four R values.</text>
<line x1="24" y1="57" x2="54" y2="57" stroke="#D55E00" stroke-width="2.4" stroke-dasharray="none"/><text x="60" y="61" font-size="12" fill="#222">R=50: peak 5 (required 5)</text>
<line x1="255" y1="57" x2="285" y2="57" stroke="#E69F00" stroke-width="2.4" stroke-dasharray="7 4"/><text x="291" y="61" font-size="12" fill="#222">R=60: peak 4 (required 4)</text>
<line x1="486" y1="57" x2="516" y2="57" stroke="#009E73" stroke-width="2.4" stroke-dasharray="2 3"/><text x="522" y="61" font-size="12" fill="#222">R=70: peak 4 (required 4)</text>
<line x1="717" y1="57" x2="747" y2="57" stroke="#0072B2" stroke-width="2.4" stroke-dasharray="9 3 2 3"/><text x="753" y="61" font-size="12" fill="#222">R=90: peak 3 (required 3)</text>
<rect x="60" y="84" width="1440" height="260" fill="#fff" stroke="#888" stroke-width="0.8"/>
<line x1="60" y1="344" x2="1500" y2="344" stroke="#e2e2e2" stroke-width="0.7"/>
<text x="55" y="348" font-size="11" text-anchor="end" fill="#333">0</text>
<line x1="60" y1="300.667" x2="1500" y2="300.667" stroke="#e2e2e2" stroke-width="0.7"/>
<text x="55" y="304.667" font-size="11" text-anchor="end" fill="#333">1</text>
<line x1="60" y1="257.333" x2="1500" y2="257.333" stroke="#e2e2e2" stroke-width="0.7"/>
<text x="55" y="261.333" font-size="11" text-anchor="end" fill="#333">2</text>
<line x1="60" y1="214" x2="1500" y2="214" stroke="#e2e2e2" stroke-width="0.7"/>
<text x="55" y="218" font-size="11" text-anchor="end" fill="#333">3</text>
<line x1="60" y1="170.667" x2="1500" y2="170.667" stroke="#e2e2e2" stroke-width="0.7"/>
<text x="55" y="174.667" font-size="11" text-anchor="end" fill="#333">4</text>
<line x1="60" y1="127.333" x2="1500" y2="127.333" stroke="#e2e2e2" stroke-width="0.7"/>
<text x="55" y="131.333" font-size="11" text-anchor="end" fill="#333">5</text>
<line x1="60" y1="84" x2="1500" y2="84" stroke="#e2e2e2" stroke-width="0.7"/>
<text x="55" y="88" font-size="11" text-anchor="end" fill="#333">6</text>
<line x1="60" y1="84" x2="60" y2="344" stroke="#bbb" stroke-width="0.7"/>
<text x="60" y="358" font-size="11" text-anchor="middle" fill="#333">06:00</text>
<line x1="156" y1="84" x2="156" y2="344" stroke="#bbb" stroke-width="0.7"/>
<text x="156" y="358" font-size="11" text-anchor="middle" fill="#333">07:00</text>
<line x1="252" y1="84" x2="252" y2="344" stroke="#bbb" stroke-width="0.7"/>
<text x="252" y="358" font-size="11" text-anchor="middle" fill="#333">08:00</text>
<line x1="348" y1="84" x2="348" y2="344" stroke="#bbb" stroke-width="0.7"/>
<text x="348" y="358" font-size="11" text-anchor="middle" fill="#333">09:00</text>
<line x1="444" y1="84" x2="444" y2="344" stroke="#bbb" stroke-width="0.7"/>
<text x="444" y="358" font-size="11" text-anchor="middle" fill="#333">10:00</text>
<line x1="540" y1="84" x2="540" y2="344" stroke="#bbb" stroke-width="0.7"/>
<text x="540" y="358" font-size="11" text-anchor="middle" fill="#333">11:00</text>
<line x1="636" y1="84" x2="636" y2="344" stroke="#bbb" stroke-width="0.7"/>
<text x="636" y="358" font-size="11" text-anchor="middle" fill="#333">12:00</text>
<line x1="732" y1="84" x2="732" y2="344" stroke="#bbb" stroke-width="0.7"/>
<text x="732" y="358" font-size="11" text-anchor="middle" fill="#333">13:00</text>
<line x1="828" y1="84" x2="828" y2="344" stroke="#bbb" stroke-width="0.7"/>
<text x="828" y="358" font-size="11" text-anchor="middle" fill="#333">14:00</text>
<line x1="924" y1="84" x2="924" y2="344" stroke="#bbb" stroke-width="0.7"/>
<text x="924" y="358" font-size="11" text-anchor="middle" fill="#333">15:00</text>
<line x1="1020" y1="84" x2="1020" y2="344" stroke="#bbb" stroke-width="0.7"/>
<text x="1020" y="358" font-size="11" text-anchor="middle" fill="#333">16:00</text>
<line x1="1116" y1="84" x2="1116" y2="344" stroke="#bbb" stroke-width="0.7"/>
<text x="1116" y="358" font-size="11" text-anchor="middle" fill="#333">17:00</text>
<line x1="1212" y1="84" x2="1212" y2="344" stroke="#bbb" stroke-width="0.7"/>
<text x="1212" y="358" font-size="11" text-anchor="middle" fill="#333">18:00</text>
<line x1="1308" y1="84" x2="1308" y2="344" stroke="#bbb" stroke-width="0.7"/>
<text x="1308" y="358" font-size="11" text-anchor="middle" fill="#333">19:00</text>
<line x1="1404" y1="84" x2="1404" y2="344" stroke="#bbb" stroke-width="0.7"/>
<text x="1404" y="358" font-size="11" text-anchor="middle" fill="#333">20:00</text>
<line x1="1500" y1="84" x2="1500" y2="344" stroke="#bbb" stroke-width="0.7"/>
<text x="1500" y="358" font-size="11" text-anchor="middle" fill="#333">21:00</text>
<text transform="rotate(-90 28 214)" x="28" y="214" font-size="12" text-anchor="middle" fill="#222">Vehicles</text>
<polyline points="164,300.667 189.6,300.667 189.6,257.333 220,257.333 220,214 290.4,214 290.4,170.667 324,170.667 324,170.667 328.8,170.667 328.8,127.333 340,127.333 340,300.667 420,300.667 420,300.667 436,300.667 436,344 460,344 460,300.667 466.4,300.667 466.4,257.333 516,257.333 516,257.333 532,257.333 532,300.667 564,300.667 564,257.333 612,257.333 612,257.333 621.6,257.333 621.6,214 628,214 628,257.333 645.6,257.333 645.6,257.333 652,257.333 652,214 660,214 660,127.333 661.6,127.333 661.6,170.667 708,170.667 708,170.667 724,170.667 724,257.333 749.6,257.333 749.6,257.333 756,257.333 756,170.667 765.6,170.667 765.6,214 767.2,214 767.2,170.667 789.6,170.667 789.6,170.667 805.6,170.667 805.6,214 836,214 836,214 852,214 852,257.333 877.6,257.333 877.6,257.333 893.6,257.333 893.6,300.667 900,300.667 900,300.667 916,300.667 916,344 948,344 948,300.667 994.4,300.667 994.4,300.667 1010.4,300.667 1010.4,344 1044,344 1044,257.333 1140,257.333 1140,170.667 1143.2,170.667 1143.2,170.667 1159.2,170.667 1159.2,214 1172,214 1172,214 1188,214 1188,257.333 1204,257.333 1204,300.667 1236,300.667 1236,214 1244,214 1244,214 1260,214 1260,257.333 1319.2,257.333 1319.2,257.333 1335.2,257.333 1335.2,300.667 1359.2,300.667 1359.2,300.667 1375.2,300.667" fill="none" stroke="#D55E00" stroke-width="2.4" stroke-dasharray="none"/>
<polyline points="175.2,300.667 189.6,300.667 189.6,257.333 192.8,257.333 192.8,214 324,214 324,214 328.8,214 328.8,170.667 340,170.667 340,300.667 420,300.667 420,300.667 436,300.667 436,344 460,344 460,300.667 466.4,300.667 466.4,257.333 516,257.333 516,257.333 532,257.333 532,300.667 564,300.667 564,257.333 580,257.333 580,214 612,214 612,214 628,214 628,257.333 645.6,257.333 645.6,257.333 660,257.333 660,170.667 661.6,170.667 661.6,214 708,214 708,214 724,214 724,257.333 749.6,257.333 749.6,257.333 756,257.333 756,170.667 765.6,170.667 765.6,214 767.2,214 767.2,170.667 789.6,170.667 789.6,170.667 805.6,170.667 805.6,214 836,214 836,214 852,214 852,257.333 877.6,257.333 877.6,257.333 893.6,257.333 893.6,300.667 900,300.667 900,300.667 916,300.667 916,344 948,344 948,300.667 994.4,300.667 994.4,300.667 1010.4,300.667 1010.4,344 1044,344 1044,257.333 1111.2,257.333 1111.2,257.333 1127.2,257.333 1127.2,300.667 1140,300.667 1140,214 1188,214 1188,214 1192.8,214 1192.8,214 1204,214 1204,257.333 1208.8,257.333 1208.8,300.667 1236,300.667 1236,214 1244,214 1244,214 1260,214 1260,257.333 1319.2,257.333 1319.2,257.333 1335.2,257.333 1335.2,300.667 1359.2,300.667 1359.2,300.667 1375.2,300.667" fill="none" stroke="#E69F00" stroke-width="2.4" stroke-dasharray="7 4"/>
<polyline points="143.2,300.667 160.8,300.667 160.8,257.333 277.6,257.333 277.6,214 324,214 324,214 328.8,214 328.8,170.667 340,170.667 340,300.667 420,300.667 420,300.667 436,300.667 436,344 460,344 460,300.667 466.4,300.667 466.4,257.333 516,257.333 516,257.333 532,257.333 532,300.667 564,300.667 564,257.333 586.4,257.333 586.4,214 612,214 612,214 628,214 628,257.333 645.6,257.333 645.6,257.333 660,257.333 660,170.667 661.6,170.667 661.6,214 706.4,214 706.4,214 708,214 708,214 722.4,214 722.4,257.333 724,257.333 724,300.667 756,300.667 756,214 767.2,214 767.2,170.667 821.6,170.667 821.6,170.667 836,170.667 836,170.667 837.6,170.667 837.6,214 852,214 852,257.333 877.6,257.333 877.6,257.333 893.6,257.333 893.6,300.667 900,300.667 900,300.667 916,300.667 916,344 948,344 948,300.667 994.4,300.667 994.4,300.667 1010.4,300.667 1010.4,344 1044,344 1044,257.333 1111.2,257.333 1111.2,257.333 1127.2,257.333 1127.2,300.667 1140,300.667 1140,257.333 1192.8,257.333 1192.8,257.333 1208.8,257.333 1208.8,300.667 1236,300.667 1236,257.333 1263.2,257.333 1263.2,257.333 1279.2,257.333 1279.2,300.667 1400.8,300.667 1400.8,300.667 1416.8,300.667" fill="none" stroke="#009E73" stroke-width="2.4" stroke-dasharray="2 3"/>
<polyline points="127.2,300.667 172,300.667 172,257.333 324,257.333 324,257.333 328.8,257.333 328.8,214 340,214 340,300.667 420,300.667 420,300.667 436,300.667 436,344 460,344 460,300.667 466.4,300.667 466.4,257.333 516,257.333 516,257.333 532,257.333 532,300.667 564,300.667 564,257.333 586.4,257.333 586.4,214 612,214 612,214 628,214 628,257.333 645.6,257.333 645.6,257.333 660,257.333 660,214 661.6,214 661.6,257.333 708,257.333 708,257.333 724,257.333 724,300.667 756,300.667 756,257.333 768.8,257.333 768.8,214 856.8,214 856.8,214 872.8,214 872.8,257.333 900,257.333 900,257.333 916,257.333 916,300.667 925.6,300.667 925.6,300.667 941.6,300.667 941.6,344 948,344 948,300.667 994.4,300.667 994.4,300.667 1010.4,300.667 1010.4,344 1044,344 1044,300.667 1140,300.667 1140,257.333 1232.8,257.333 1232.8,257.333 1236,257.333 1236,214 1248.8,214 1248.8,257.333 1263.2,257.333 1263.2,257.333 1279.2,257.333 1279.2,300.667 1397.6,300.667 1397.6,300.667 1413.6,300.667" fill="none" stroke="#0072B2" stroke-width="2.4" stroke-dasharray="9 3 2 3"/>
<rect x="127.2" y="84" width="16" height="260" fill="#000" fill-opacity="0"><title>06:42-06:52 busy incl. cooldown: R=50: 0, R=60: 0, R=70: 0, R=90: 1</title></rect>
<rect x="143.2" y="84" width="17.6" height="260" fill="#000" fill-opacity="0"><title>06:52-07:03 busy incl. cooldown: R=50: 0, R=60: 0, R=70: 1, R=90: 1</title></rect>
<rect x="160.8" y="84" width="3.2" height="260" fill="#000" fill-opacity="0"><title>07:03-07:05 busy incl. cooldown: R=50: 0, R=60: 0, R=70: 2, R=90: 1</title></rect>
<rect x="164" y="84" width="8" height="260" fill="#000" fill-opacity="0"><title>07:05-07:10 busy incl. cooldown: R=50: 1, R=60: 0, R=70: 2, R=90: 1</title></rect>
<rect x="172" y="84" width="3.2" height="260" fill="#000" fill-opacity="0"><title>07:10-07:12 busy incl. cooldown: R=50: 1, R=60: 0, R=70: 2, R=90: 2</title></rect>
<rect x="175.2" y="84" width="14.4" height="260" fill="#000" fill-opacity="0"><title>07:12-07:21 busy incl. cooldown: R=50: 1, R=60: 1, R=70: 2, R=90: 2</title></rect>
<rect x="189.6" y="84" width="3.2" height="260" fill="#000" fill-opacity="0"><title>07:21-07:23 busy incl. cooldown: R=50: 2, R=60: 2, R=70: 2, R=90: 2</title></rect>
<rect x="192.8" y="84" width="27.2" height="260" fill="#000" fill-opacity="0"><title>07:23-07:40 busy incl. cooldown: R=50: 2, R=60: 3, R=70: 2, R=90: 2</title></rect>
<rect x="220" y="84" width="57.6" height="260" fill="#000" fill-opacity="0"><title>07:40-08:16 busy incl. cooldown: R=50: 3, R=60: 3, R=70: 2, R=90: 2</title></rect>
<rect x="277.6" y="84" width="12.8" height="260" fill="#000" fill-opacity="0"><title>08:16-08:24 busy incl. cooldown: R=50: 3, R=60: 3, R=70: 3, R=90: 2</title></rect>
<rect x="290.4" y="84" width="33.6" height="260" fill="#000" fill-opacity="0"><title>08:24-08:45 busy incl. cooldown: R=50: 4, R=60: 3, R=70: 3, R=90: 2</title></rect>
<rect x="324" y="84" width="4.8" height="260" fill="#000" fill-opacity="0"><title>08:45-08:48 busy incl. cooldown: R=50: 4, R=60: 3, R=70: 3, R=90: 2</title></rect>
<rect x="328.8" y="84" width="11.2" height="260" fill="#000" fill-opacity="0"><title>08:48-08:55 busy incl. cooldown: R=50: 5, R=60: 4, R=70: 4, R=90: 3</title></rect>
<rect x="340" y="84" width="80" height="260" fill="#000" fill-opacity="0"><title>08:55-09:45 busy incl. cooldown: R=50: 1, R=60: 1, R=70: 1, R=90: 1</title></rect>
<rect x="420" y="84" width="16" height="260" fill="#000" fill-opacity="0"><title>09:45-09:55 busy incl. cooldown: R=50: 1, R=60: 1, R=70: 1, R=90: 1</title></rect>
<rect x="436" y="84" width="24" height="260" fill="#000" fill-opacity="0"><title>09:55-10:10 busy incl. cooldown: R=50: 0, R=60: 0, R=70: 0, R=90: 0</title></rect>
<rect x="460" y="84" width="6.4" height="260" fill="#000" fill-opacity="0"><title>10:10-10:14 busy incl. cooldown: R=50: 1, R=60: 1, R=70: 1, R=90: 1</title></rect>
<rect x="466.4" y="84" width="49.6" height="260" fill="#000" fill-opacity="0"><title>10:14-10:45 busy incl. cooldown: R=50: 2, R=60: 2, R=70: 2, R=90: 2</title></rect>
<rect x="516" y="84" width="16" height="260" fill="#000" fill-opacity="0"><title>10:45-10:55 busy incl. cooldown: R=50: 2, R=60: 2, R=70: 2, R=90: 2</title></rect>
<rect x="532" y="84" width="32" height="260" fill="#000" fill-opacity="0"><title>10:55-11:15 busy incl. cooldown: R=50: 1, R=60: 1, R=70: 1, R=90: 1</title></rect>
<rect x="564" y="84" width="16" height="260" fill="#000" fill-opacity="0"><title>11:15-11:25 busy incl. cooldown: R=50: 2, R=60: 2, R=70: 2, R=90: 2</title></rect>
<rect x="580" y="84" width="6.4" height="260" fill="#000" fill-opacity="0"><title>11:25-11:29 busy incl. cooldown: R=50: 2, R=60: 3, R=70: 2, R=90: 2</title></rect>
<rect x="586.4" y="84" width="25.6" height="260" fill="#000" fill-opacity="0"><title>11:29-11:45 busy incl. cooldown: R=50: 2, R=60: 3, R=70: 3, R=90: 3</title></rect>
<rect x="612" y="84" width="9.6" height="260" fill="#000" fill-opacity="0"><title>11:45-11:51 busy incl. cooldown: R=50: 2, R=60: 3, R=70: 3, R=90: 3</title></rect>
<rect x="621.6" y="84" width="6.4" height="260" fill="#000" fill-opacity="0"><title>11:51-11:55 busy incl. cooldown: R=50: 3, R=60: 3, R=70: 3, R=90: 3</title></rect>
<rect x="628" y="84" width="17.6" height="260" fill="#000" fill-opacity="0"><title>11:55-12:06 busy incl. cooldown: R=50: 2, R=60: 2, R=70: 2, R=90: 2</title></rect>
<rect x="645.6" y="84" width="6.4" height="260" fill="#000" fill-opacity="0"><title>12:06-12:10 busy incl. cooldown: R=50: 2, R=60: 2, R=70: 2, R=90: 2</title></rect>
<rect x="652" y="84" width="8" height="260" fill="#000" fill-opacity="0"><title>12:10-12:15 busy incl. cooldown: R=50: 3, R=60: 2, R=70: 2, R=90: 2</title></rect>
<rect x="660" y="84" width="1.6" height="260" fill="#000" fill-opacity="0"><title>12:15-12:16 busy incl. cooldown: R=50: 5, R=60: 4, R=70: 4, R=90: 3</title></rect>
<rect x="661.6" y="84" width="44.8" height="260" fill="#000" fill-opacity="0"><title>12:16-12:44 busy incl. cooldown: R=50: 4, R=60: 3, R=70: 3, R=90: 2</title></rect>
<rect x="706.4" y="84" width="1.6" height="260" fill="#000" fill-opacity="0"><title>12:44-12:45 busy incl. cooldown: R=50: 4, R=60: 3, R=70: 3, R=90: 2</title></rect>
<rect x="708" y="84" width="14.4" height="260" fill="#000" fill-opacity="0"><title>12:45-12:54 busy incl. cooldown: R=50: 4, R=60: 3, R=70: 3, R=90: 2</title></rect>
<rect x="722.4" y="84" width="1.6" height="260" fill="#000" fill-opacity="0"><title>12:54-12:55 busy incl. cooldown: R=50: 4, R=60: 3, R=70: 2, R=90: 2</title></rect>
<rect x="724" y="84" width="25.6" height="260" fill="#000" fill-opacity="0"><title>12:55-13:11 busy incl. cooldown: R=50: 2, R=60: 2, R=70: 1, R=90: 1</title></rect>
<rect x="749.6" y="84" width="6.4" height="260" fill="#000" fill-opacity="0"><title>13:11-13:15 busy incl. cooldown: R=50: 2, R=60: 2, R=70: 1, R=90: 1</title></rect>
<rect x="756" y="84" width="9.6" height="260" fill="#000" fill-opacity="0"><title>13:15-13:21 busy incl. cooldown: R=50: 4, R=60: 4, R=70: 3, R=90: 2</title></rect>
<rect x="765.6" y="84" width="1.6" height="260" fill="#000" fill-opacity="0"><title>13:21-13:22 busy incl. cooldown: R=50: 3, R=60: 3, R=70: 3, R=90: 2</title></rect>
<rect x="767.2" y="84" width="1.6" height="260" fill="#000" fill-opacity="0"><title>13:22-13:23 busy incl. cooldown: R=50: 4, R=60: 4, R=70: 4, R=90: 2</title></rect>
<rect x="768.8" y="84" width="20.8" height="260" fill="#000" fill-opacity="0"><title>13:23-13:36 busy incl. cooldown: R=50: 4, R=60: 4, R=70: 4, R=90: 3</title></rect>
<rect x="789.6" y="84" width="16" height="260" fill="#000" fill-opacity="0"><title>13:36-13:46 busy incl. cooldown: R=50: 4, R=60: 4, R=70: 4, R=90: 3</title></rect>
<rect x="805.6" y="84" width="16" height="260" fill="#000" fill-opacity="0"><title>13:46-13:56 busy incl. cooldown: R=50: 3, R=60: 3, R=70: 4, R=90: 3</title></rect>
<rect x="821.6" y="84" width="14.4" height="260" fill="#000" fill-opacity="0"><title>13:56-14:05 busy incl. cooldown: R=50: 3, R=60: 3, R=70: 4, R=90: 3</title></rect>
<rect x="836" y="84" width="1.6" height="260" fill="#000" fill-opacity="0"><title>14:05-14:06 busy incl. cooldown: R=50: 3, R=60: 3, R=70: 4, R=90: 3</title></rect>
<rect x="837.6" y="84" width="14.4" height="260" fill="#000" fill-opacity="0"><title>14:06-14:15 busy incl. cooldown: R=50: 3, R=60: 3, R=70: 3, R=90: 3</title></rect>
<rect x="852" y="84" width="4.8" height="260" fill="#000" fill-opacity="0"><title>14:15-14:18 busy incl. cooldown: R=50: 2, R=60: 2, R=70: 2, R=90: 3</title></rect>
<rect x="856.8" y="84" width="16" height="260" fill="#000" fill-opacity="0"><title>14:18-14:28 busy incl. cooldown: R=50: 2, R=60: 2, R=70: 2, R=90: 3</title></rect>
<rect x="872.8" y="84" width="4.8" height="260" fill="#000" fill-opacity="0"><title>14:28-14:31 busy incl. cooldown: R=50: 2, R=60: 2, R=70: 2, R=90: 2</title></rect>
<rect x="877.6" y="84" width="16" height="260" fill="#000" fill-opacity="0"><title>14:31-14:41 busy incl. cooldown: R=50: 2, R=60: 2, R=70: 2, R=90: 2</title></rect>
<rect x="893.6" y="84" width="6.4" height="260" fill="#000" fill-opacity="0"><title>14:41-14:45 busy incl. cooldown: R=50: 1, R=60: 1, R=70: 1, R=90: 2</title></rect>
<rect x="900" y="84" width="16" height="260" fill="#000" fill-opacity="0"><title>14:45-14:55 busy incl. cooldown: R=50: 1, R=60: 1, R=70: 1, R=90: 2</title></rect>
<rect x="916" y="84" width="9.6" height="260" fill="#000" fill-opacity="0"><title>14:55-15:01 busy incl. cooldown: R=50: 0, R=60: 0, R=70: 0, R=90: 1</title></rect>
<rect x="925.6" y="84" width="16" height="260" fill="#000" fill-opacity="0"><title>15:01-15:11 busy incl. cooldown: R=50: 0, R=60: 0, R=70: 0, R=90: 1</title></rect>
<rect x="941.6" y="84" width="6.4" height="260" fill="#000" fill-opacity="0"><title>15:11-15:15 busy incl. cooldown: R=50: 0, R=60: 0, R=70: 0, R=90: 0</title></rect>
<rect x="948" y="84" width="46.4" height="260" fill="#000" fill-opacity="0"><title>15:15-15:44 busy incl. cooldown: R=50: 1, R=60: 1, R=70: 1, R=90: 1</title></rect>
<rect x="994.4" y="84" width="16" height="260" fill="#000" fill-opacity="0"><title>15:44-15:54 busy incl. cooldown: R=50: 1, R=60: 1, R=70: 1, R=90: 1</title></rect>
<rect x="1010.4" y="84" width="33.6" height="260" fill="#000" fill-opacity="0"><title>15:54-16:15 busy incl. cooldown: R=50: 0, R=60: 0, R=70: 0, R=90: 0</title></rect>
<rect x="1044" y="84" width="67.2" height="260" fill="#000" fill-opacity="0"><title>16:15-16:57 busy incl. cooldown: R=50: 2, R=60: 2, R=70: 2, R=90: 1</title></rect>
<rect x="1111.2" y="84" width="16" height="260" fill="#000" fill-opacity="0"><title>16:57-17:07 busy incl. cooldown: R=50: 2, R=60: 2, R=70: 2, R=90: 1</title></rect>
<rect x="1127.2" y="84" width="12.8" height="260" fill="#000" fill-opacity="0"><title>17:07-17:15 busy incl. cooldown: R=50: 2, R=60: 1, R=70: 1, R=90: 1</title></rect>
<rect x="1140" y="84" width="3.2" height="260" fill="#000" fill-opacity="0"><title>17:15-17:17 busy incl. cooldown: R=50: 4, R=60: 3, R=70: 2, R=90: 2</title></rect>
<rect x="1143.2" y="84" width="16" height="260" fill="#000" fill-opacity="0"><title>17:17-17:27 busy incl. cooldown: R=50: 4, R=60: 3, R=70: 2, R=90: 2</title></rect>
<rect x="1159.2" y="84" width="12.8" height="260" fill="#000" fill-opacity="0"><title>17:27-17:35 busy incl. cooldown: R=50: 3, R=60: 3, R=70: 2, R=90: 2</title></rect>
<rect x="1172" y="84" width="16" height="260" fill="#000" fill-opacity="0"><title>17:35-17:45 busy incl. cooldown: R=50: 3, R=60: 3, R=70: 2, R=90: 2</title></rect>
<rect x="1188" y="84" width="4.8" height="260" fill="#000" fill-opacity="0"><title>17:45-17:48 busy incl. cooldown: R=50: 2, R=60: 3, R=70: 2, R=90: 2</title></rect>
<rect x="1192.8" y="84" width="11.2" height="260" fill="#000" fill-opacity="0"><title>17:48-17:55 busy incl. cooldown: R=50: 2, R=60: 3, R=70: 2, R=90: 2</title></rect>
<rect x="1204" y="84" width="4.8" height="260" fill="#000" fill-opacity="0"><title>17:55-17:58 busy incl. cooldown: R=50: 1, R=60: 2, R=70: 2, R=90: 2</title></rect>
<rect x="1208.8" y="84" width="24" height="260" fill="#000" fill-opacity="0"><title>17:58-18:13 busy incl. cooldown: R=50: 1, R=60: 1, R=70: 1, R=90: 2</title></rect>
<rect x="1232.8" y="84" width="3.2" height="260" fill="#000" fill-opacity="0"><title>18:13-18:15 busy incl. cooldown: R=50: 1, R=60: 1, R=70: 1, R=90: 2</title></rect>
<rect x="1236" y="84" width="8" height="260" fill="#000" fill-opacity="0"><title>18:15-18:20 busy incl. cooldown: R=50: 3, R=60: 3, R=70: 2, R=90: 3</title></rect>
<rect x="1244" y="84" width="4.8" height="260" fill="#000" fill-opacity="0"><title>18:20-18:23 busy incl. cooldown: R=50: 3, R=60: 3, R=70: 2, R=90: 3</title></rect>
<rect x="1248.8" y="84" width="11.2" height="260" fill="#000" fill-opacity="0"><title>18:23-18:30 busy incl. cooldown: R=50: 3, R=60: 3, R=70: 2, R=90: 2</title></rect>
<rect x="1260" y="84" width="3.2" height="260" fill="#000" fill-opacity="0"><title>18:30-18:32 busy incl. cooldown: R=50: 2, R=60: 2, R=70: 2, R=90: 2</title></rect>
<rect x="1263.2" y="84" width="16" height="260" fill="#000" fill-opacity="0"><title>18:32-18:42 busy incl. cooldown: R=50: 2, R=60: 2, R=70: 2, R=90: 2</title></rect>
<rect x="1279.2" y="84" width="40" height="260" fill="#000" fill-opacity="0"><title>18:42-19:07 busy incl. cooldown: R=50: 2, R=60: 2, R=70: 1, R=90: 1</title></rect>
<rect x="1319.2" y="84" width="16" height="260" fill="#000" fill-opacity="0"><title>19:07-19:17 busy incl. cooldown: R=50: 2, R=60: 2, R=70: 1, R=90: 1</title></rect>
<rect x="1335.2" y="84" width="24" height="260" fill="#000" fill-opacity="0"><title>19:17-19:32 busy incl. cooldown: R=50: 1, R=60: 1, R=70: 1, R=90: 1</title></rect>
<rect x="1359.2" y="84" width="16" height="260" fill="#000" fill-opacity="0"><title>19:32-19:42 busy incl. cooldown: R=50: 1, R=60: 1, R=70: 1, R=90: 1</title></rect>
<rect x="1375.2" y="84" width="22.4" height="260" fill="#000" fill-opacity="0"><title>19:42-19:56 busy incl. cooldown: R=50: 0, R=60: 0, R=70: 1, R=90: 1</title></rect>
<rect x="1397.6" y="84" width="3.2" height="260" fill="#000" fill-opacity="0"><title>19:56-19:58 busy incl. cooldown: R=50: 0, R=60: 0, R=70: 1, R=90: 1</title></rect>
<rect x="1400.8" y="84" width="12.8" height="260" fill="#000" fill-opacity="0"><title>19:58-20:06 busy incl. cooldown: R=50: 0, R=60: 0, R=70: 1, R=90: 1</title></rect>
<rect x="1413.6" y="84" width="3.2" height="260" fill="#000" fill-opacity="0"><title>20:06-20:08 busy incl. cooldown: R=50: 0, R=60: 0, R=70: 1, R=90: 0</title></rect>
<text x="780" y="378" font-size="12" text-anchor="middle" fill="#222">Time of day (HH:MM)</text>
</svg>
