<svg xmlns="http://www.w3.org/2000/svg" viewBox="0 0 1236 366" width="1236" height="366" font-family="Arial, Helvetica, sans-serif"><rect width="100%" height="100%" fill="#ffffff"/>
<text x="24" y="24" font-size="16" font-weight="bold" fill="#111">Resource requirement, Friday 2026-10-09, R=50 min, tour limit 150 min, 6 vehicles required</text>
<text x="24" y="42" font-size="12" fill="#444">Peak busy 6 at 13:15-13:35; peak on route 6 at 13:15-13:25</text>
<rect x="24" y="52" width="16" height="10" fill="#56B4E9" fill-opacity="0.35" stroke="#1f7fb8" stroke-width="1.2"/><text x="46" y="62" font-size="12" fill="#222">Busy incl. 10-min cooldown</text>
<line x1="224" y1="57" x2="240" y2="57" stroke="#111111" stroke-width="2.2"/><text x="246" y="62" font-size="12" fill="#222">On route</text>
<line x1="314" y1="57" x2="330" y2="57" stroke="#D55E00" stroke-width="1.6" stroke-dasharray="7 4"/><text x="336" y="62" font-size="12" fill="#222">Vehicles required</text>
<rect x="454" y="55" width="16" height="5" fill="#D55E00"/><text x="476" y="62" font-size="12" fill="#222">Peak window (busy)</text>
<rect x="60" y="80" width="1152" height="240" fill="#fff" stroke="#888" stroke-width="0.8"/>
<line x1="60" y1="320" x2="1212" y2="320" stroke="#e2e2e2" stroke-width="0.7"/>
<text x="55" y="324" font-size="11" text-anchor="end" fill="#333">0</text>
<line x1="60" y1="285.714" x2="1212" y2="285.714" stroke="#e2e2e2" stroke-width="0.7"/>
<text x="55" y="289.714" font-size="11" text-anchor="end" fill="#333">1</text>
<line x1="60" y1="251.429" x2="1212" y2="251.429" stroke="#e2e2e2" stroke-width="0.7"/>
<text x="55" y="255.429" font-size="11" text-anchor="end" fill="#333">2</text>
<line x1="60" y1="217.143" x2="1212" y2="217.143" stroke="#e2e2e2" stroke-width="0.7"/>
<text x="55" y="221.143" font-size="11" text-anchor="end" fill="#333">3</text>
<line x1="60" y1="182.857" x2="1212" y2="182.857" stroke="#e2e2e2" stroke-width="0.7"/>
<text x="55" y="186.857" font-size="11" text-anchor="end" fill="#333">4</text>
<line x1="60" y1="148.571" x2="1212" y2="148.571" stroke="#e2e2e2" stroke-width="0.7"/>
<text x="55" y="152.571" font-size="11" text-anchor="end" fill="#333">5</text>
<line x1="60" y1="114.286" x2="1212" y2="114.286" stroke="#e2e2e2" stroke-width="0.7"/>
<text x="55" y="118.286" font-size="11" text-anchor="end" fill="#333">6</text>
<line x1="60" y1="80" x2="1212" y2="80" stroke="#e2e2e2" stroke-width="0.7"/>
<text x="55" y="84" font-size="11" text-anchor="end" fill="#333">7</text>
<line x1="60" y1="80" x2="60" y2="320" stroke="#bbb" stroke-width="0.7"/>
<text x="60" y="334" font-size="11" text-anchor="middle" fill="#333">07:00</text>
<line x1="156" y1="80" x2="156" y2="320" stroke="#bbb" stroke-width="0.7"/>
<text x="156" y="334" font-size="11" text-anchor="middle" fill="#333">08:00</text>
<line x1="252" y1="80" x2="252" y2="320" stroke="#bbb" stroke-width="0.7"/>
<text x="252" y="334" font-size="11" text-anchor="middle" fill="#333">09:00</text>
<line x1="348" y1="80" x2="348" y2="320" stroke="#bbb" stroke-width="0.7"/>
<text x="348" y="334" font-size="11" text-anchor="middle" fill="#333">10:00</text>
<line x1="444" y1="80" x2="444" y2="320" stroke="#bbb" stroke-width="0.7"/>
<text x="444" y="334" font-size="11" text-anchor="middle" fill="#333">11:00</text>
<line x1="540" y1="80" x2="540" y2="320" stroke="#bbb" stroke-width="0.7"/>
<text x="540" y="334" font-size="11" text-anchor="middle" fill="#333">12:00</text>
<line x1="636" y1="80" x2="636" y2="320" stroke="#bbb" stroke-width="0.7"/>
<text x="636" y="334" font-size="11" text-anchor="middle" fill="#333">13:00</text>
<line x1="732" y1="80" x2="732" y2="320" stroke="#bbb" stroke-width="0.7"/>
<text x="732" y="334" font-size="11" text-anchor="middle" fill="#333">14:00</text>
<line x1="828" y1="80" x2="828" y2="320" stroke="#bbb" stroke-width="0.7"/>
<text x="828" y="334" font-size="11" text-anchor="middle" fill="#333">15:00</text>
<line x1="924" y1="80" x2="924" y2="320" stroke="#bbb" stroke-width="0.7"/>
<text x="924" y="334" font-size="11" text-anchor="middle" fill="#333">16:00</text>
<line x1="1020" y1="80" x2="1020" y2="320" stroke="#bbb" stroke-width="0.7"/>
<text x="1020" y="334" font-size="11" text-anchor="middle" fill="#333">17:00</text>
<line x1="1116" y1="80" x2="1116" y2="320" stroke="#bbb" stroke-width="0.7"/>
<text x="1116" y="334" font-size="11" text-anchor="middle" fill="#333">18:00</text>
<line x1="1212" y1="80" x2="1212" y2="320" stroke="#bbb" stroke-width="0.7"/>
<text x="1212" y="334" font-size="11" text-anchor="middle" fill="#333">19:00</text>
<text transform="rotate(-90 28 200)" x="28" y="200" font-size="12" text-anchor="middle" fill="#222">Vehicles</text>
<polygon points="71.2,320 71.2,285.714 85.6,285.714 85.6,251.429 104.8,251.429 104.8,217.143 120.8,217.143 120.8,182.857 228,182.857 228,182.857 244,182.857 244,320 260,320 260,285.714 324,285.714 324,285.714 340,285.714 340,320 556,320 556,285.714 564,285.714 564,182.857 615.2,182.857 615.2,182.857 618.4,182.857 618.4,148.571 631.2,148.571 631.2,182.857 660,182.857 660,114.286 676,114.286 676,114.286 692,114.286 692,148.571 693.6,148.571 693.6,148.571 708,148.571 708,148.571 709.6,148.571 709.6,182.857 724,182.857 724,251.429 740,251.429 740,285.714 773.6,285.714 773.6,285.714 789.6,285.714 789.6,320 948,320 948,285.714 1031.2,285.714 1031.2,285.714 1044,285.714 1044,182.857 1047.2,182.857 1047.2,217.143 1119.2,217.143 1119.2,217.143 1135.2,217.143 1135.2,251.429 1140,251.429 1140,217.143 1167.2,217.143 1167.2,217.143 1170.4,217.143 1170.4,217.143 1173.6,217.143 1173.6,217.143 1183.2,217.143 1183.2,251.429 1186.4,251.429 1186.4,285.714 1189.6,285.714 1189.6,320" fill="#56B4E9" fill-opacity="0.35" stroke="none"/>
<polyline points="71.2,285.714 85.6,285.714 85.6,251.429 104.8,251.429 104.8,217.143 120.8,217.143 120.8,182.857 228,182.857 228,182.857 244,182.857 244,320 260,320 260,285.714 324,285.714 324,285.714 340,285.714 340,320 556,320 556,285.714 564,285.714 564,182.857 615.2,182.857 615.2,182.857 618.4,182.857 618.4,148.571 631.2,148.571 631.2,182.857 660,182.857 660,114.286 676,114.286 676,114.286 692,114.286 692,148.571 693.6,148.571 693.6,148.571 708,148.571 708,148.571 709.6,148.571 709.6,182.857 724,182.857 724,251.429 740,251.429 740,285.714 773.6,285.714 773.6,285.714 789.6,285.714 789.6,320 948,320 948,285.714 1031.2,285.714 1031.2,285.714 1044,285.714 1044,182.857 1047.2,182.857 1047.2,217.143 1119.2,217.143 1119.2,217.143 1135.2,217.143 1135.2,251.429 1140,251.429 1140,217.143 1167.2,217.143 1167.2,217.143 1170.4,217.143 1170.4,217.143 1173.6,217.143 1173.6,217.143 1183.2,217.143 1183.2,251.429 1186.4,251.429 1186.4,285.714 1189.6,285.714" fill="none" stroke="#1f7fb8" stroke-width="1.2"/>
<polyline points="71.2,285.714 85.6,285.714 85.6,251.429 104.8,251.429 104.8,217.143 120.8,217.143 120.8,182.857 228,182.857 228,320 244,320 244,320 260,320 260,285.714 324,285.714 324,320 340,320 340,320 556,320 556,285.714 564,285.714 564,182.857 615.2,182.857 615.2,217.143 618.4,217.143 618.4,182.857 631.2,182.857 631.2,182.857 660,182.857 660,114.286 676,114.286 676,148.571 692,148.571 692,148.571 693.6,148.571 693.6,182.857 708,182.857 708,251.429 709.6,251.429 709.6,251.429 724,251.429 724,285.714 740,285.714 740,285.714 773.6,285.714 773.6,320 789.6,320 789.6,320 948,320 948,285.714 1031.2,285.714 1031.2,320 1044,320 1044,217.143 1047.2,217.143 1047.2,217.143 1119.2,217.143 1119.2,251.429 1135.2,251.429 1135.2,251.429 1140,251.429 1140,217.143 1167.2,217.143 1167.2,251.429 1170.4,251.429 1170.4,285.714 1173.6,285.714 1173.6,320 1183.2,320 1183.2,320 1186.4,320 1186.4,320 1189.6,320" fill="none" stroke="#111111" stroke-width="2.2"/>
<line x1="60" y1="114.286" x2="1212" y2="114.286" stroke="#D55E00" stroke-width="1.6" stroke-dasharray="7 4"/>
<text x="1208" y="110.286" font-size="12" font-weight="bold" text-anchor="end" fill="#D55E00">vehicles required = 6</text>
<rect x="660" y="111.786" width="32" height="5" fill="#D55E00"/>
<text x="676" y="107.286" font-size="11" text-anchor="middle" fill="#222">peak 6</text>
<rect x="71.2" y="80" width="14.4" height="240" fill="#000" fill-opacity="0"><title>07:07-07:16: 1 on route, 1 busy incl. 10-min cooldown</title></rect>
<rect x="85.6" y="80" width="19.2" height="240" fill="#000" fill-opacity="0"><title>07:16-07:28: 2 on route, 2 busy incl. 10-min cooldown</title></rect>
<rect x="104.8" y="80" width="16" height="240" fill="#000" fill-opacity="0"><title>07:28-07:38: 3 on route, 3 busy incl. 10-min cooldown</title></rect>
<rect x="120.8" y="80" width="107.2" height="240" fill="#000" fill-opacity="0"><title>07:38-08:45: 4 on route, 4 busy incl. 10-min cooldown</title></rect>
<rect x="228" y="80" width="16" height="240" fill="#000" fill-opacity="0"><title>08:45-08:55: 0 on route, 4 busy incl. 10-min cooldown</title></rect>
<rect x="244" y="80" width="16" height="240" fill="#000" fill-opacity="0"><title>08:55-09:05: 0 on route, 0 busy incl. 10-min cooldown</title></rect>
<rect x="260" y="80" width="64" height="240" fill="#000" fill-opacity="0"><title>09:05-09:45: 1 on route, 1 busy incl. 10-min cooldown</title></rect>
<rect x="324" y="80" width="16" height="240" fill="#000" fill-opacity="0"><title>09:45-09:55: 0 on route, 1 busy incl. 10-min cooldown</title></rect>
<rect x="340" y="80" width="216" height="240" fill="#000" fill-opacity="0"><title>09:55-12:10: 0 on route, 0 busy incl. 10-min cooldown</title></rect>
<rect x="556" y="80" width="8" height="240" fill="#000" fill-opacity="0"><title>12:10-12:15: 1 on route, 1 busy incl. 10-min cooldown</title></rect>
<rect x="564" y="80" width="51.2" height="240" fill="#000" fill-opacity="0"><title>12:15-12:47: 4 on route, 4 busy incl. 10-min cooldown</title></rect>
<rect x="615.2" y="80" width="3.2" height="240" fill="#000" fill-opacity="0"><title>12:47-12:49: 3 on route, 4 busy incl. 10-min cooldown</title></rect>
<rect x="618.4" y="80" width="12.8" height="240" fill="#000" fill-opacity="0"><title>12:49-12:57: 4 on route, 5 busy incl. 10-min cooldown</title></rect>
<rect x="631.2" y="80" width="28.8" height="240" fill="#000" fill-opacity="0"><title>12:57-13:15: 4 on route, 4 busy incl. 10-min cooldown</title></rect>
<rect x="660" y="80" width="16" height="240" fill="#000" fill-opacity="0"><title>13:15-13:25: 6 on route, 6 busy incl. 10-min cooldown</title></rect>
<rect x="676" y="80" width="16" height="240" fill="#000" fill-opacity="0"><title>13:25-13:35: 5 on route, 6 busy incl. 10-min cooldown</title></rect>
<rect x="692" y="80" width="1.6" height="240" fill="#000" fill-opacity="0"><title>13:35-13:36: 5 on route, 5 busy incl. 10-min cooldown</title></rect>
<rect x="693.6" y="80" width="14.4" height="240" fill="#000" fill-opacity="0"><title>13:36-13:45: 4 on route, 5 busy incl. 10-min cooldown</title></rect>
<rect x="708" y="80" width="1.6" height="240" fill="#000" fill-opacity="0"><title>13:45-13:46: 2 on route, 5 busy incl. 10-min cooldown</title></rect>
<rect x="709.6" y="80" width="14.4" height="240" fill="#000" fill-opacity="0"><title>13:46-13:55: 2 on route, 4 busy incl. 10-min cooldown</title></rect>
<rect x="724" y="80" width="16" height="240" fill="#000" fill-opacity="0"><title>13:55-14:05: 1 on route, 2 busy incl. 10-min cooldown</title></rect>
<rect x="740" y="80" width="33.6" height="240" fill="#000" fill-opacity="0"><title>14:05-14:26: 1 on route, 1 busy incl. 10-min cooldown</title></rect>
<rect x="773.6" y="80" width="16" height="240" fill="#000" fill-opacity="0"><title>14:26-14:36: 0 on route, 1 busy incl. 10-min cooldown</title></rect>
<rect x="789.6" y="80" width="158.4" height="240" fill="#000" fill-opacity="0"><title>14:36-16:15: 0 on route, 0 busy incl. 10-min cooldown</title></rect>
<rect x="948" y="80" width="83.2" height="240" fill="#000" fill-opacity="0"><title>16:15-17:07: 1 on route, 1 busy incl. 10-min cooldown</title></rect>
<rect x="1031.2" y="80" width="12.8" height="240" fill="#000" fill-opacity="0"><title>17:07-17:15: 0 on route, 1 busy incl. 10-min cooldown</title></rect>
<rect x="1044" y="80" width="3.2" height="240" fill="#000" fill-opacity="0"><title>17:15-17:17: 3 on route, 4 busy incl. 10-min cooldown</title></rect>
<rect x="1047.2" y="80" width="72" height="240" fill="#000" fill-opacity="0"><title>17:17-18:02: 3 on route, 3 busy incl. 10-min cooldown</title></rect>
<rect x="1119.2" y="80" width="16" height="240" fill="#000" fill-opacity="0"><title>18:02-18:12: 2 on route, 3 busy incl. 10-min cooldown</title></rect>
<rect x="1135.2" y="80" width="4.8" height="240" fill="#000" fill-opacity="0"><title>18:12-18:15: 2 on route, 2 busy incl. 10-min cooldown</title></rect>
<rect x="1140" y="80" width="27.2" height="240" fill="#000" fill-opacity="0"><title>18:15-18:32: 3 on route, 3 busy incl. 10-min cooldown</title></rect>
<rect x="1167.2" y="80" width="3.2" height="240" fill="#000" fill-opacity="0"><title>18:32-18:34: 2 on route, 3 busy incl. 10-min cooldown</title></rect>
<rect x="1170.4" y="80" width="3.2" height="240" fill="#000" fill-opacity="0"><title>18:34-18:36: 1 on route, 3 busy incl. 10-min cooldown</title></rect>
<rect x="1173.6" y="80" width="9.6" height="240" fill="#000" fill-opacity="0"><title>18:36-18:42: 0 on route, 3 busy incl. 10-min cooldown</title></rect>
<rect x="1183.2" y="80" width="3.2" height="240" fill="#000" fill-opacity="0"><title>18:42-18:44: 0 on route, 2 busy incl. 10-min cooldown</title></rect>
<rect x="1186.4" y="80" width="3.2" height="240" fill="#000" fill-opacity="0"><title>18:44-18:46: 0 on route, 1 busy incl. 10-min cooldown</title></rect>
<text x="636" y="354" font-size="12" text-anchor="middle" fill="#222">Time of day (HH:MM)</text>
</svg>
